<?xml version="1.0" standalone="no"?>
<!DOCTYPE svg PUBLIC "-//W3C//DTD SVG 20010904//EN"
 "http://www.w3.org/TR/2001/REC-SVG-20010904/DTD/svg10.dtd">
<svg version="1.0" xmlns="http://www.w3.org/2000/svg"
 width="2400.000000pt" height="3448.000000pt" viewBox="0 0 2400.000000 3448.000000"
 preserveAspectRatio="xMidYMid meet">
<metadata>
Created by potrace 1.16, written by Peter Selinger 2001-2019
</metadata>
<g transform="translate(0.000000,3448.000000) scale(0.100000,-0.100000)"
fill="#000000" stroke="none">
<path d="M11393 34473 c28 -3 40 -10 47 -27 5 -13 17 -26 26 -30 16 -6 16 -8
4 -16 -21 -13 -3 -12 22 1 15 8 19 8 14 0 -8 -12 3 -14 46 -11 14 1 29 -3 33
-9 3 -6 -1 -11 -9 -11 -9 0 -16 -7 -16 -16 0 -11 8 -15 28 -13 37 3 72 -10 72
-27 0 -7 18 -19 40 -25 28 -9 40 -18 40 -31 0 -10 6 -18 13 -18 8 0 7 -3 -3
-10 -20 -12 -9 -20 19 -13 13 3 20 11 17 19 -3 9 2 14 14 14 11 0 20 -5 20
-11 0 -16 26 -39 44 -39 9 0 16 -5 16 -11 0 -19 28 -39 53 -39 14 0 27 -5 29
-11 2 -6 17 -11 33 -11 36 0 56 -14 49 -33 -4 -10 2 -13 22 -12 21 1 31 -4 41
-23 10 -20 13 -21 13 -7 0 11 5 17 13 14 6 -2 11 -12 11 -21 -1 -9 2 -16 7
-16 5 0 9 8 9 17 0 39 17 -15 19 -60 1 -10 6 -15 12 -12 6 4 8 13 5 21 -8 20
11 17 23 -3 10 -17 10 -17 11 -1 0 15 4 16 25 6 16 -7 27 -22 31 -44 7 -36 24
-37 24 -2 0 19 2 19 25 -8 22 -25 27 -27 45 -16 18 11 20 10 20 -14 0 -14 4
-23 9 -19 12 7 67 -43 64 -59 -2 -6 13 -12 37 -13 23 0 46 -6 53 -12 7 -5 23
-7 36 -4 20 5 22 3 17 -14 -4 -12 -1 -25 9 -33 8 -7 15 -8 15 -3 0 5 7 10 15
10 8 0 12 -4 9 -8 -2 -4 5 -16 16 -27 16 -15 31 -18 70 -14 33 3 50 1 50 -7 0
-6 -3 -10 -8 -8 -4 1 -7 -2 -7 -8 0 -5 3 -9 7 -8 5 2 8 -5 8 -14 0 -15 2 -14
15 3 10 12 14 14 13 4 -2 -8 12 -22 31 -31 18 -10 40 -27 48 -39 10 -14 22
-20 34 -17 11 3 19 0 19 -6 0 -7 5 -5 10 3 8 13 10 12 10 -4 0 -14 5 -17 20
-13 17 4 20 2 15 -14 -10 -30 12 -22 23 9 8 21 11 23 11 7 1 -28 39 -58 73
-57 18 0 28 -4 28 -13 0 -8 9 -19 20 -25 11 -6 18 -15 15 -21 -4 -5 2 -9 13
-9 39 0 81 -21 84 -43 3 -20 8 -22 54 -19 30 2 55 -1 58 -7 4 -7 1 -8 -8 -5
-9 3 -16 1 -16 -5 0 -7 7 -14 16 -18 8 -3 13 -12 10 -19 -6 -17 -4 -17 28 -3
20 10 30 9 49 -4 18 -12 27 -13 36 -4 8 8 11 4 11 -15 0 -30 19 -49 55 -52 31
-4 34 11 3 17 -20 4 -19 4 5 6 15 0 27 -3 27 -8 0 -18 48 -62 55 -51 3 6 11 8
16 4 5 -3 7 -9 4 -14 -3 -4 9 -13 25 -19 17 -5 37 -17 45 -25 8 -8 33 -17 55
-21 26 -4 40 -12 40 -22 0 -9 6 -13 14 -10 7 3 19 0 26 -6 10 -9 14 -9 17 1 7
17 33 15 33 -3 0 -8 -4 -15 -10 -15 -5 0 -10 -4 -10 -8 0 -4 17 -9 38 -10 20
-2 38 -7 40 -12 5 -15 32 -12 33 3 0 6 4 2 9 -10 6 -14 18 -23 31 -23 11 0 19
-5 17 -12 -2 -6 6 -22 18 -35 22 -24 44 -30 44 -13 0 6 5 10 10 10 6 0 10 -13
10 -29 0 -16 7 -34 15 -41 8 -7 15 -19 15 -26 0 -22 47 -16 140 17 123 44 232
79 252 79 9 0 18 6 21 13 4 9 7 9 18 -1 12 -11 12 -14 -1 -23 -11 -8 -12 -12
-2 -16 6 -2 12 -11 12 -18 0 -13 57 -45 80 -45 6 0 9 -4 5 -9 -3 -5 -1 -12 5
-16 5 -3 10 0 10 7 0 7 7 2 16 -11 13 -18 18 -20 25 -10 7 11 9 9 10 -6 1 -11
1 -25 0 -31 -1 -6 8 -19 19 -29 17 -15 20 -16 20 -3 0 9 7 19 16 22 13 5 15 2
11 -15 -8 -29 42 -74 100 -91 46 -13 61 -37 50 -78 -6 -25 6 -26 29 -2 19 18
19 19 -3 -35 -3 -7 2 -13 11 -13 10 0 13 6 10 15 -4 8 -1 15 5 15 6 0 11 -7
11 -16 0 -10 6 -14 15 -10 8 3 15 2 15 -2 0 -4 5 -14 10 -22 8 -13 11 -12 24
5 13 16 15 17 16 4 0 -9 8 -31 17 -49 15 -30 17 -32 24 -14 7 19 8 19 8 -1 1
-14 4 -16 9 -7 6 8 15 0 31 -29 14 -24 28 -38 36 -35 9 3 12 -2 10 -14 -5 -23
14 -38 25 -20 10 17 40 5 40 -15 0 -8 5 -15 10 -15 6 0 10 -7 10 -16 0 -13 3
-14 14 -5 11 9 15 7 19 -9 3 -11 10 -20 17 -20 6 0 8 5 5 10 -3 6 -1 10 6 10
6 0 9 -8 6 -20 -3 -13 0 -20 9 -20 17 0 18 -17 2 -23 -9 -4 -8 -6 2 -6 9 -1
22 -17 29 -37 12 -33 14 -34 30 -20 15 14 19 14 39 0 12 -8 22 -22 22 -30 0
-8 5 -14 10 -14 14 0 13 13 -2 28 -9 9 -8 12 5 12 15 0 22 -18 18 -43 -1 -4 4
-7 11 -6 21 2 58 -13 58 -24 0 -6 3 -7 6 -4 10 10 44 -12 44 -28 0 -8 4 -15 9
-15 5 0 12 -14 16 -31 7 -29 7 -30 31 -14 15 10 24 11 24 4 0 -7 10 -9 25 -7
17 4 25 1 25 -8 0 -8 5 -14 11 -14 5 0 7 -5 4 -10 -4 -7 3 -8 22 -4 15 4 30
11 31 16 2 4 11 8 20 8 15 -1 14 -2 -2 -11 -13 -8 -15 -13 -6 -19 9 -5 9 -9 1
-14 -6 -4 -11 -2 -11 3 0 6 -4 11 -10 11 -18 0 -11 -18 10 -25 11 -3 20 -13
20 -21 0 -8 7 -17 15 -20 8 -4 12 -10 9 -15 -9 -14 6 -49 21 -49 7 0 15 5 17
11 2 7 13 9 27 4 15 -4 20 -12 17 -22 -4 -9 1 -17 14 -20 13 -3 20 -14 20 -29
0 -30 14 -31 34 -3 l14 21 12 -22 c6 -12 14 -19 17 -16 12 12 64 -26 78 -57
10 -22 13 -24 8 -7 -5 23 -4 24 11 11 10 -8 15 -23 13 -33 -6 -22 8 -24 17 -3
3 8 15 15 26 15 17 0 19 4 14 27 -7 26 -6 27 9 11 9 -9 17 -24 17 -33 0 -11 5
-15 15 -12 8 4 17 2 20 -4 4 -5 12 -6 18 -3 7 4 8 3 4 -2 -5 -5 -16 -9 -24 -9
-10 0 -17 -9 -18 -22 -2 -28 39 -81 49 -65 4 7 2 12 -3 12 -6 0 -11 5 -11 10
0 6 9 10 20 10 11 0 20 7 20 15 0 8 3 15 6 15 12 0 33 -35 34 -55 l1 -20 10
20 c7 15 8 11 6 -20 -2 -35 1 -40 17 -37 17 3 18 1 7 -11 -8 -10 -9 -17 -2
-22 6 -3 16 5 22 18 11 25 35 31 57 14 9 -7 12 -3 12 16 0 33 10 39 35 21 16
-12 17 -14 2 -14 -9 0 -17 -4 -17 -10 0 -5 12 -10 27 -10 19 0 24 -3 16 -11
-6 -6 -8 -19 -6 -30 5 -16 8 -17 20 -7 28 23 43 19 32 -10 -7 -17 -6 -29 1
-36 5 -5 10 -6 10 -2 0 5 7 3 15 -4 12 -10 16 -9 21 4 3 9 1 22 -5 30 -6 7 -8
15 -5 19 8 8 64 -13 64 -24 0 -5 5 -9 11 -9 5 0 7 4 4 10 -3 5 -2 18 4 27 9
17 10 17 17 -1 7 -19 8 -19 14 0 5 12 1 23 -9 31 -24 17 -5 28 25 14 20 -9 25
-9 22 1 -5 13 -9 14 -50 17 -12 0 -18 4 -15 8 4 3 0 14 -9 24 -9 10 -11 19 -5
23 5 4 13 1 16 -4 5 -7 12 -5 21 7 16 21 18 53 4 53 -5 0 -7 -7 -3 -16 5 -14
3 -15 -14 -6 -13 7 -20 22 -21 42 0 17 4 28 9 25 5 -4 9 -13 9 -21 0 -8 7 -14
15 -14 8 0 17 0 20 0 7 0 45 -38 45 -45 0 -3 -7 -5 -15 -5 -8 0 -15 -4 -15
-10 0 -5 8 -10 18 -10 10 0 24 -6 31 -12 11 -11 12 -8 7 17 -4 20 -3 25 3 16
10 -15 41 -8 41 9 0 5 -9 10 -20 10 -22 0 -26 10 -8 28 7 7 17 8 28 2 12 -6
21 -3 32 10 9 10 14 21 11 24 -4 3 5 6 20 6 14 0 32 7 40 15 13 13 16 13 27 0
14 -16 35 -21 25 -5 -11 18 7 60 26 60 10 0 19 5 19 10 0 6 18 10 40 10 28 0
40 4 40 14 0 8 -4 18 -10 21 -16 10 -12 28 5 21 10 -4 15 1 15 14 0 11 7 20
15 20 8 0 15 5 15 11 0 5 -4 7 -10 4 -5 -3 -10 3 -10 14 0 24 4 25 31 11 10
-6 19 -8 19 -5 0 8 -105 74 -171 106 -31 16 -63 35 -71 42 -12 12 -123 80
-293 181 -44 26 -87 51 -95 57 -15 9 -448 259 -565 327 -33 18 -89 49 -125 68
-72 38 -77 41 -170 100 -36 23 -141 85 -235 139 -93 54 -204 118 -245 141 -41
24 -106 61 -144 81 -38 21 -98 58 -135 82 -36 24 -91 56 -121 70 -30 15 -80
43 -110 62 -30 20 -113 69 -185 109 -71 41 -132 77 -135 80 -3 3 -16 11 -30
18 -14 6 -54 30 -90 51 -36 22 -81 48 -100 59 -39 20 -142 79 -275 157 -135
80 -505 293 -635 367 -63 36 -181 104 -262 152 l-146 86 -829 -2 c-455 -1
-811 -3 -790 -5z"/>
<path d="M9100 30501 c-6 -16 -9 -34 -6 -39 3 -5 0 -14 -7 -19 -14 -11 -246
-107 -352 -146 -38 -14 -119 -44 -180 -67 -60 -23 -123 -45 -140 -50 -16 -5
-79 -27 -140 -50 -60 -23 -148 -56 -195 -73 -47 -17 -89 -33 -95 -37 -5 -3
-30 -13 -55 -20 -25 -7 -49 -17 -55 -20 -5 -4 -32 -14 -60 -24 -27 -10 -59
-21 -70 -26 -34 -13 -97 -37 -170 -63 -243 -87 -332 -120 -351 -129 -12 -5
-52 -21 -90 -35 -112 -40 -167 -60 -199 -73 -37 -16 -140 -53 -300 -109 -66
-23 -131 -47 -145 -55 -14 -7 -54 -23 -90 -36 -36 -12 -83 -30 -105 -39 -22
-10 -71 -28 -110 -41 -38 -12 -74 -26 -80 -30 -5 -4 -22 -10 -38 -14 -15 -4
-52 -18 -82 -31 -29 -14 -58 -25 -64 -25 -6 0 -41 -12 -78 -26 -38 -14 -84
-32 -103 -39 -114 -44 -197 -77 -212 -85 -10 -6 -23 -10 -29 -10 -6 0 -38 -11
-72 -24 -34 -13 -114 -42 -177 -65 -123 -45 -122 -45 -190 -72 -25 -9 -67 -26
-95 -36 -27 -10 -60 -24 -72 -31 -12 -7 -30 -12 -40 -12 -11 0 -28 -7 -39 -15
-10 -8 -25 -15 -32 -15 -8 0 -28 -6 -45 -14 -18 -8 -59 -24 -92 -35 -123 -40
-233 -80 -310 -111 -44 -18 -100 -40 -125 -50 -109 -44 -261 -100 -271 -100
-5 0 -29 -8 -52 -19 -72 -32 -269 -109 -327 -127 -30 -9 -61 -21 -68 -27 -7
-5 -29 -13 -50 -18 -56 -11 -216 -75 -220 -88 -2 -6 -16 -11 -32 -11 -25 0
-51 -8 -135 -45 -16 -7 -52 -18 -80 -25 -27 -7 -54 -17 -60 -21 -5 -5 -19 -9
-32 -9 -12 0 -64 -17 -115 -39 -79 -33 -161 -65 -348 -136 -19 -7 -55 -21 -80
-30 -25 -9 -58 -22 -75 -30 -16 -7 -111 -43 -210 -80 -99 -37 -245 -92 -325
-122 -80 -30 -154 -58 -165 -63 -11 -5 -45 -19 -75 -30 -30 -11 -64 -25 -75
-30 -11 -5 -58 -23 -105 -40 -47 -17 -112 -42 -145 -55 -33 -12 -108 -41 -166
-64 -59 -22 -144 -59 -190 -81 -87 -42 -166 -54 -187 -27 -5 6 -35 91 -67 187
-79 244 -161 485 -255 760 -45 129 -94 273 -110 320 -16 47 -45 130 -65 185
-19 55 -53 151 -75 214 -22 63 -42 116 -45 119 -3 3 -5 -277 -5 -621 1 -611 1
-628 20 -647 23 -23 27 -45 7 -37 -9 3 -14 -6 -15 -29 -2 -19 2 -34 8 -34 5 0
10 12 10 26 0 15 4 23 11 18 6 -3 8 -17 4 -31 -5 -20 -3 -24 9 -20 20 8 27 -5
32 -56 4 -52 8 -69 17 -84 4 -6 3 -14 -2 -17 -5 -3 -11 3 -14 13 -3 15 -11 18
-27 14 -14 -4 -18 -9 -11 -16 5 -5 7 -16 4 -23 -3 -8 -1 -14 5 -14 6 0 12 6
15 13 2 7 10 0 17 -15 8 -16 21 -28 32 -28 10 0 18 -7 18 -15 0 -8 7 -15 16
-15 17 0 16 -33 -1 -72 -5 -13 -2 -18 11 -19 11 0 14 -3 7 -6 -9 -3 -7 -11 7
-26 26 -27 25 -37 -2 -38 -16 0 -18 -2 -8 -6 22 -9 30 -24 30 -59 0 -23 5 -33
20 -37 13 -3 18 -10 14 -21 -3 -9 -2 -16 4 -16 13 0 22 -39 11 -46 -5 -3 -9
-11 -8 -17 1 -7 -1 -20 -6 -31 -9 -20 10 -37 32 -29 9 4 11 0 7 -11 -3 -9 -10
-16 -15 -16 -5 0 -9 -5 -9 -11 0 -6 7 -9 15 -5 8 3 15 1 15 -5 0 -5 -7 -12
-16 -16 -13 -5 -12 -8 5 -24 27 -25 33 -24 25 6 -4 15 -2 25 5 25 6 0 10 -6 9
-12 -2 -7 3 -12 10 -10 10 2 10 -2 2 -17 -15 -28 -12 -39 5 -18 13 18 15 18
45 1 25 -15 34 -16 50 -6 17 10 21 10 26 -2 5 -14 14 -14 44 -4 8 3 40 13 70
22 30 9 78 27 105 40 28 13 51 20 53 15 2 -5 16 0 30 11 15 11 36 22 47 24 45
9 65 19 65 32 0 17 17 19 22 2 3 -8 15 -5 36 11 18 12 40 21 49 20 10 -2 34 7
53 19 19 12 43 22 52 22 9 0 24 10 32 22 12 17 18 20 28 10 16 -16 29 -15 26
1 -2 7 10 13 29 15 18 2 33 7 33 12 0 5 25 14 56 21 31 7 62 19 69 26 8 7 23
13 34 13 11 0 36 9 54 19 21 12 44 17 62 13 19 -3 26 -1 21 7 -5 7 3 11 22 11
18 0 32 6 36 16 3 8 10 13 15 10 5 -3 14 1 21 9 7 8 28 15 47 15 20 0 32 4 28
10 -6 9 16 15 39 11 5 -1 12 3 16 9 4 6 13 12 21 13 8 2 20 6 26 10 7 5 17 5
23 2 5 -3 10 -1 10 4 0 6 4 11 9 11 5 0 22 5 38 12 32 13 39 14 72 16 13 1 21
5 18 9 -12 12 39 30 102 36 44 4 69 11 85 26 12 12 36 21 52 21 16 0 40 7 52
16 12 8 27 12 32 9 6 -3 10 -2 10 2 0 5 17 15 38 23 54 22 59 23 42 11 -9 -6
-10 -11 -3 -11 6 0 18 7 27 15 15 16 31 21 22 7 -6 -10 67 -8 83 3 7 4 24 4
39 0 l27 -8 -25 -7 c-24 -8 -22 -9 23 -14 6 0 12 -8 12 -16 0 -8 7 -18 15 -22
13 -6 13 -7 0 -7 -9 -1 -21 -18 -28 -41 -16 -52 -16 -84 1 -73 6 4 4 -5 -6
-20 -9 -15 -15 -27 -13 -27 3 0 -2 -16 -10 -35 -8 -19 -14 -37 -14 -40 1 -28
-2 -34 -12 -31 -7 1 -10 1 -5 -1 12 -7 8 -41 -7 -56 -9 -8 -11 -19 -6 -27 12
-19 1 -40 -17 -33 -13 5 -15 2 -10 -16 3 -14 0 -24 -9 -28 -11 -4 -13 -14 -8
-39 5 -25 3 -34 -7 -34 -11 0 -11 -3 1 -10 13 -8 13 -11 1 -19 -7 -5 -16 -32
-19 -60 -2 -28 -9 -51 -14 -51 -6 0 -7 -11 -4 -25 4 -17 2 -24 -5 -23 -7 2
-15 -9 -20 -24 -6 -22 -4 -28 9 -29 10 0 12 -3 5 -5 -7 -3 -17 -21 -23 -40 -6
-19 -15 -32 -20 -29 -4 3 -7 -1 -6 -8 3 -36 -16 -137 -26 -131 -6 4 -9 1 -6
-7 3 -8 -3 -35 -13 -61 -9 -26 -15 -57 -12 -68 3 -12 0 -20 -7 -20 -7 0 -10
-7 -7 -15 4 -8 2 -17 -2 -20 -5 -2 -12 -21 -15 -40 -4 -19 -12 -35 -18 -35 -9
0 -9 -3 0 -12 15 -15 16 -32 2 -23 -9 5 -12 -8 -9 -31 0 -4 -4 -10 -11 -14 -6
-4 -17 -25 -25 -46 -12 -33 -12 -41 1 -50 20 -16 18 -24 -7 -24 -12 0 -19 -5
-16 -12 2 -7 0 -21 -4 -30 -6 -10 -5 -19 2 -24 8 -5 8 -8 0 -14 -7 -3 -14 -24
-18 -46 -3 -21 -12 -43 -20 -47 -11 -7 -12 -12 -2 -23 10 -12 8 -17 -6 -28
-10 -7 -15 -18 -11 -24 3 -6 -2 -15 -11 -21 -17 -9 -17 -11 2 -26 17 -14 17
-16 3 -11 -10 3 -18 1 -18 -4 0 -6 5 -10 10 -10 6 0 10 -4 10 -10 0 -5 -6 -10
-13 -10 -9 0 -11 -12 -9 -40 3 -29 -1 -47 -13 -60 -9 -10 -14 -24 -10 -30 3
-6 1 -9 -7 -8 -8 2 -13 -7 -14 -22 0 -14 -3 -31 -8 -38 -4 -6 -9 -35 -12 -64
-3 -29 -9 -58 -15 -64 -5 -6 -5 -14 -1 -18 4 -4 0 -6 -8 -4 -10 2 -16 -10 -21
-42 -7 -47 -27 -113 -28 -95 -1 6 -7 -1 -14 -15 -7 -14 -12 -46 -11 -72 1 -31
-2 -46 -10 -45 -6 1 -12 -10 -14 -25 -2 -16 -8 -28 -13 -28 -5 0 -9 -11 -9
-24 0 -14 -5 -28 -11 -32 -7 -4 -8 -9 -1 -13 7 -4 4 -20 -8 -46 -11 -24 -15
-42 -9 -46 6 -3 3 -11 -5 -19 -10 -8 -14 -21 -10 -37 4 -14 1 -31 -8 -41 -18
-21 -41 -105 -42 -155 -1 -21 -8 -42 -15 -47 -11 -6 -10 -9 5 -13 16 -4 17 -5
2 -6 -10 0 -18 -5 -18 -10 0 -5 -3 -17 -7 -27 -4 -12 -3 -15 5 -10 7 4 12 4
12 -1 -1 -15 -27 -43 -40 -43 -9 0 -10 -3 -1 -14 8 -10 9 -21 1 -42 -6 -15 -9
-33 -6 -40 3 -8 -4 -20 -15 -28 -13 -9 -16 -15 -8 -18 9 -3 7 -12 -7 -34 -10
-16 -21 -31 -24 -34 -3 -3 -6 -18 -8 -34 -2 -17 -11 -36 -20 -43 -10 -7 -12
-12 -5 -13 7 0 11 -6 8 -12 -2 -7 -6 -33 -9 -58 -4 -25 -11 -46 -16 -48 -6 -2
-10 -10 -10 -18 0 -9 -3 -13 -8 -10 -4 2 -6 -14 -3 -36 2 -28 -1 -43 -11 -49
-8 -4 -15 -26 -17 -51 -1 -26 -8 -46 -17 -51 -8 -5 -14 -18 -13 -30 3 -42 0
-50 -14 -39 -9 8 -11 1 -8 -34 1 -25 -1 -44 -7 -44 -5 0 -12 -9 -15 -20 -3
-12 0 -20 7 -20 6 0 12 -9 12 -20 0 -12 -5 -19 -12 -16 -7 3 -10 -3 -7 -15 4
-14 1 -18 -10 -13 -13 5 -15 0 -10 -30 3 -22 0 -48 -10 -68 -8 -18 -18 -52
-22 -75 -4 -24 -11 -46 -16 -49 -6 -3 -7 -15 -3 -26 5 -17 3 -20 -10 -15 -18
7 -21 -4 -5 -20 7 -7 6 -14 -4 -24 -7 -8 -17 -32 -21 -54 -4 -22 -8 -46 -10
-52 -1 -7 -14 -31 -28 -53 -21 -31 -24 -40 -11 -40 9 0 13 -6 9 -15 -3 -8 -2
-15 3 -15 4 0 8 -14 8 -30 0 -25 -4 -30 -21 -28 -19 3 -21 -2 -20 -39 0 -30
-3 -43 -13 -43 -9 0 -12 -9 -8 -29 3 -17 1 -32 -5 -36 -5 -3 -7 -12 -3 -20 3
-9 -3 -27 -13 -43 -10 -15 -18 -30 -16 -34 1 -4 -6 -24 -15 -45 -20 -46 -22
-56 -8 -65 7 -5 6 -14 -3 -28 -7 -11 -10 -25 -7 -29 2 -5 -5 -11 -16 -14 -16
-4 -20 -11 -16 -26 3 -12 1 -24 -5 -27 -7 -4 -6 -9 1 -13 14 -9 -8 -61 -26
-61 -7 0 -13 -3 -14 -7 0 -5 -2 -16 -4 -25 -2 -12 3 -18 16 -18 10 0 19 -3 19
-6 0 -10 -28 -34 -39 -34 -6 0 -11 -5 -11 -11 0 -6 7 -8 16 -5 19 7 8 -14 -18
-32 -23 -17 -25 -54 -2 -45 14 5 15 3 4 -18 -7 -13 -18 -27 -24 -31 -8 -6 -6
-11 4 -18 13 -9 13 -10 0 -10 -13 0 -13 -1 0 -10 10 -7 11 -10 2 -10 -8 0 -11
-12 -8 -36 3 -29 0 -37 -15 -41 -21 -6 -26 -23 -7 -23 6 0 4 -6 -7 -13 -10 -8
-15 -19 -11 -25 4 -7 2 -10 -6 -7 -10 4 -15 -4 -16 -27 -4 -47 -7 -67 -14 -73
-3 -3 -4 -19 -2 -35 3 -25 0 -30 -19 -31 -20 0 -21 -1 -2 -8 18 -7 18 -8 1
-18 -12 -7 -18 -22 -18 -48 0 -21 -7 -49 -14 -61 -12 -18 -12 -23 -2 -27 10
-4 10 -6 -1 -6 -11 -1 -11 -4 -1 -16 12 -15 11 -16 -12 -19 -8 0 -13 -16 -14
-36 -1 -49 -23 -133 -37 -143 -9 -7 -9 -10 0 -13 9 -4 4 -18 -14 -45 -20 -30
-23 -43 -15 -51 7 -7 12 -8 12 -2 0 5 6 -2 14 -16 11 -21 11 -29 -1 -47 -7
-13 -11 -23 -7 -23 4 0 2 -6 -4 -12 -5 -7 -8 -30 -7 -51 2 -21 -1 -35 -6 -31
-15 9 -19 -115 -4 -135 7 -11 7 -13 -2 -8 -14 9 -30 -13 -16 -22 11 -7 14 -41
3 -41 -3 0 -11 5 -18 12 -9 9 -12 9 -12 0 0 -7 7 -15 16 -19 11 -4 13 -13 9
-34 -5 -22 -3 -29 8 -29 10 0 13 -7 10 -21 -4 -15 -2 -20 10 -17 8 2 24 -7 35
-20 16 -18 21 -20 26 -7 7 20 71 20 130 0 24 -8 51 -12 60 -9 9 3 16 1 16 -5
0 -5 13 -9 29 -8 16 1 27 5 24 10 -6 10 2 9 31 -4 14 -7 23 -16 20 -20 -3 -5
2 -9 10 -9 9 0 16 -5 16 -12 0 -6 8 -4 20 7 13 11 25 15 37 10 10 -5 37 -7 61
-6 31 1 44 -3 48 -14 4 -9 13 -14 21 -11 8 3 24 0 35 -8 11 -8 27 -12 34 -9 8
3 14 0 14 -6 0 -8 7 -7 22 3 17 12 26 13 42 4 12 -7 43 -13 69 -14 27 -2 55
-8 62 -14 10 -8 15 -7 19 2 5 10 7 10 12 1 3 -7 19 -13 34 -13 16 0 32 -5 35
-11 4 -6 14 -8 22 -5 8 4 32 2 54 -4 21 -6 60 -12 86 -15 45 -4 91 -11 103
-15 3 -1 13 -1 23 0 10 1 25 -4 32 -10 16 -14 75 -20 75 -9 0 5 16 1 36 -7 20
-8 55 -16 79 -18 24 -1 50 -8 59 -15 15 -13 77 -23 148 -25 14 -1 24 -5 21
-10 -3 -4 4 -5 16 -1 14 4 23 1 27 -9 4 -10 18 -16 36 -16 16 0 39 -5 50 -11
16 -8 23 -8 29 2 8 11 11 11 20 -4 7 -12 15 -15 26 -9 10 6 34 3 67 -9 28 -11
63 -19 78 -19 14 0 28 -4 30 -10 2 -5 28 -11 58 -12 30 -1 59 -4 65 -7 5 -3
17 -6 25 -6 58 -2 130 -19 130 -30 0 -12 48 -18 127 -16 13 0 39 -8 59 -19 19
-11 39 -18 43 -15 5 2 33 -2 62 -9 62 -16 150 -31 163 -28 4 2 13 -1 20 -7 12
-9 111 -27 136 -23 8 1 24 -3 35 -7 11 -5 58 -14 104 -19 46 -6 87 -15 91 -21
3 -6 22 -11 41 -10 19 1 88 -9 154 -24 102 -21 201 -40 290 -53 40 -6 81 -15
110 -24 17 -5 59 -12 94 -15 35 -3 68 -8 73 -12 6 -3 37 -7 70 -10 34 -2 68
-8 77 -13 9 -5 44 -11 76 -14 33 -3 75 -10 93 -15 18 -5 36 -9 39 -8 4 1 13
-22 20 -52 14 -66 30 -77 102 -73 8 0 20 -6 28 -13 7 -8 30 -17 51 -21 44 -7
110 -24 142 -36 48 -19 82 -26 95 -21 9 3 21 1 28 -5 6 -6 30 -13 51 -17 21
-4 62 -16 90 -26 28 -11 70 -19 94 -19 24 0 51 -4 60 -9 9 -5 58 -17 107 -26
50 -10 97 -20 105 -23 17 -6 28 -9 90 -18 25 -4 50 -10 55 -14 6 -4 24 -11 40
-15 17 -4 39 -9 50 -12 11 -3 35 -7 53 -10 18 -3 35 -9 38 -14 3 -5 23 -9 45
-9 22 0 52 -6 67 -14 15 -7 77 -23 137 -35 109 -22 140 -30 223 -58 24 -8 96
-26 160 -39 64 -14 124 -27 132 -29 8 -2 40 -11 70 -20 106 -31 155 -43 200
-50 25 -4 65 -14 90 -22 45 -15 55 -17 119 -29 19 -4 46 -13 60 -20 14 -8 34
-14 44 -14 10 0 52 -11 95 -25 42 -13 122 -34 177 -46 55 -13 104 -26 110 -31
5 -4 24 -8 41 -8 18 0 36 -5 39 -10 4 -6 10 -8 14 -5 5 2 22 -2 38 -10 17 -8
43 -17 59 -19 31 -4 219 -53 244 -63 8 -4 40 -12 70 -19 88 -20 212 -52 253
-64 20 -6 42 -8 47 -5 6 3 10 2 10 -3 0 -9 31 -21 70 -28 29 -5 145 -39 155
-45 6 -4 26 -10 45 -13 19 -4 58 -16 85 -26 28 -10 101 -31 163 -46 61 -15
112 -30 112 -34 0 -3 19 -7 41 -9 23 -1 58 -10 78 -20 20 -10 56 -22 81 -26
25 -4 50 -11 55 -15 6 -4 26 -11 45 -14 19 -4 51 -13 70 -21 56 -21 201 -64
243 -71 20 -3 37 -9 37 -13 0 -3 26 -6 57 -5 40 1 60 6 69 18 8 12 19 15 38
10 14 -3 26 -4 26 -1 0 7 -85 33 -262 82 -71 19 -183 50 -251 69 -67 19 -176
49 -242 67 -193 51 -297 79 -350 94 -47 13 -241 66 -365 100 -30 8 -102 28
-160 44 -58 16 -177 48 -265 70 -88 23 -180 48 -205 56 -25 8 -124 35 -220 60
-96 26 -195 53 -220 60 -25 8 -133 37 -240 66 -107 28 -274 73 -370 99 -96 27
-202 54 -235 60 -33 7 -67 16 -76 21 -19 10 -517 147 -1124 309 -92 25 -171
46 -235 64 -25 7 -142 38 -260 70 -118 32 -345 94 -505 137 -415 114 -556 153
-760 208 -99 26 -306 83 -460 125 -555 151 -1284 348 -1485 402 -669 179 -993
267 -1055 287 -68 21 -70 23 -67 52 3 28 13 64 32 110 5 11 12 38 15 60 4 22
12 43 18 47 6 3 11 24 12 45 1 21 9 55 18 75 9 21 17 44 17 52 0 9 7 37 16 63
9 26 22 73 29 103 15 63 82 326 115 445 12 44 31 118 42 165 18 82 34 140 77
280 11 36 22 81 26 100 3 19 15 67 25 105 11 39 26 97 35 130 23 88 61 229 84
315 47 169 103 377 108 400 7 30 54 207 144 535 23 83 45 168 50 190 4 22 12
52 18 66 5 15 7 29 5 32 -3 3 1 18 9 34 8 15 22 62 32 103 10 41 26 103 36
137 11 34 19 70 19 79 0 9 15 66 34 128 19 61 38 129 41 151 4 22 13 60 20 85
21 68 46 159 60 220 8 30 25 93 39 140 15 47 30 101 35 120 18 73 53 208 72
280 11 41 26 98 34 125 7 28 23 86 35 130 12 44 31 116 42 160 10 44 30 116
43 160 13 44 31 106 40 138 8 31 22 83 31 115 26 94 75 284 84 330 5 23 14 50
19 60 5 9 25 82 46 162 20 80 57 209 81 288 24 78 44 147 44 153 0 6 9 32 21
58 17 41 24 47 43 44 13 -3 30 2 38 11 9 8 51 23 93 31 84 18 115 32 115 54 0
10 3 11 13 2 8 -6 17 -8 21 -4 4 4 19 8 34 9 61 2 64 4 58 20 -5 13 -2 15 14
11 11 -3 20 -1 20 4 0 5 20 9 45 9 39 0 45 3 45 21 0 19 2 20 16 8 13 -11 17
-10 25 4 5 9 16 14 24 10 9 -3 23 1 32 8 8 8 26 12 38 11 12 -2 28 4 35 12 7
9 25 16 41 16 16 0 29 4 29 8 0 15 49 32 89 32 23 0 44 6 51 15 11 13 15 13
21 3 6 -10 9 -8 9 6 0 13 5 17 20 13 11 -3 22 -2 25 3 2 4 25 13 50 20 25 7
45 16 45 21 0 5 7 6 15 3 8 -4 15 -1 15 5 0 6 7 8 15 5 8 -4 22 -1 30 6 8 6
19 9 26 5 6 -4 15 -1 20 6 4 8 12 14 16 14 4 1 22 8 39 17 17 9 41 14 52 11
13 -3 22 -1 22 6 0 6 13 11 28 11 15 0 33 5 40 12 7 7 12 8 12 3 0 -4 10 0 21
11 16 14 23 15 26 7 7 -19 23 -16 23 5 0 13 2 14 9 4 6 -11 18 -9 57 9 27 13
53 29 57 36 6 10 13 10 28 3 13 -7 19 -7 19 0 0 5 5 10 12 10 6 0 21 9 33 20
17 16 27 18 52 11 25 -7 39 -4 73 15 23 13 56 25 74 27 39 5 58 15 51 27 -3 5
10 7 28 4 24 -3 40 2 55 16 13 12 22 15 24 8 2 -6 15 0 30 15 15 15 33 24 41
21 8 -3 18 -1 22 5 3 6 17 11 31 11 13 0 24 5 24 10 0 6 15 10 34 10 18 0 46
6 61 14 15 8 34 12 43 9 11 -5 13 -3 7 7 -6 10 -4 12 8 7 11 -4 24 2 37 15 11
12 23 18 27 15 3 -4 0 -7 -8 -7 -12 0 -12 -2 0 -9 20 -13 41 -2 41 19 0 12 10
20 34 24 19 4 37 12 39 19 4 9 6 9 6 0 1 -18 21 -16 21 2 0 8 5 15 11 15 5 0
7 -4 4 -10 -3 -5 1 -10 10 -10 10 0 13 5 9 12 -5 8 0 9 14 6 15 -4 22 -2 22 8
0 9 11 14 33 14 17 0 49 6 69 13 31 11 35 16 25 26 -10 11 -8 12 8 3 15 -7 25
-7 38 3 10 7 27 10 38 8 16 -5 20 -1 17 13 -2 16 3 19 35 18 25 -1 37 3 37 12
0 10 6 11 25 4 23 -9 29 -6 26 13 0 4 7 7 18 7 11 0 21 9 24 21 4 16 9 19 23
11 19 -11 54 -4 54 10 0 5 15 8 33 6 22 -2 31 1 29 10 -1 7 5 12 15 10 10 -2
17 2 16 9 -2 9 10 11 43 8 33 -3 47 0 51 11 3 8 15 14 27 14 12 0 26 4 32 9 5
5 35 16 67 26 31 10 57 22 57 26 0 14 30 10 30 -3 1 -8 6 -5 15 6 8 10 19 15
25 11 7 -4 16 -1 21 6 4 8 12 14 16 15 4 0 16 4 26 8 9 5 23 6 31 3 7 -3 24 2
37 11 13 9 25 16 27 14 6 -6 72 28 72 38 0 6 4 9 9 5 5 -3 12 -1 16 5 10 16
25 12 26 -7 0 -14 2 -15 6 -3 11 29 52 58 73 53 11 -3 20 0 20 6 0 6 7 11 15
11 8 0 15 5 15 10 0 6 5 10 11 10 6 0 9 -7 6 -14 -6 -16 16 -12 41 7 8 6 12 6
12 -2 0 -18 18 -13 46 15 21 22 28 24 36 13 7 -11 11 -11 15 -1 2 6 9 9 15 6
5 -3 12 3 15 15 4 15 14 21 37 23 49 2 54 3 62 11 4 4 18 7 30 7 13 0 27 6 31
14 4 7 33 19 63 26 30 7 63 21 73 31 14 15 22 17 37 9 17 -9 48 -4 60 9 11 12
70 29 70 20 0 -6 8 -5 20 1 11 6 18 15 15 21 -4 5 4 10 17 11 22 1 37 4 48 8
3 1 13 3 22 5 10 2 31 13 48 25 28 20 70 35 167 60 17 4 52 18 78 30 25 12 64
24 88 27 23 4 53 14 66 24 13 11 32 19 41 19 10 0 21 7 24 16 4 9 13 14 21 10
9 -3 49 6 90 19 40 14 83 25 94 25 12 0 21 6 21 14 0 9 8 12 24 9 13 -3 35 2
48 11 13 9 47 18 74 21 27 2 53 11 60 19 6 9 14 13 17 9 4 -3 12 -1 19 4 20
16 84 23 97 10 8 -8 11 -7 11 6 0 14 9 17 43 16 23 -1 49 0 57 2 8 2 14 -3 15
-11 0 -21 27 -60 41 -60 12 0 24 -31 24 -66 0 -17 5 -20 25 -16 34 6 56 -22
53 -70 -1 -21 3 -43 10 -50 7 -7 12 -18 12 -26 0 -12 2 -12 17 -1 15 13 16 11
10 -11 -6 -23 4 -57 14 -49 7 6 43 -25 55 -46 9 -16 8 -23 -5 -32 -14 -11 -13
-12 9 -10 22 2 25 -2 28 -36 2 -21 9 -40 17 -43 13 -5 31 -59 27 -78 -2 -4 9
-5 23 -2 22 6 25 3 25 -23 0 -24 3 -28 20 -24 16 4 19 2 14 -11 -4 -10 1 -25
11 -36 9 -10 14 -24 10 -30 -3 -6 -1 -9 7 -8 7 2 13 -4 13 -12 0 -8 9 -20 20
-25 12 -6 21 -22 22 -40 1 -16 9 -35 18 -41 8 -6 15 -19 15 -29 0 -9 9 -19 20
-22 13 -4 19 -11 16 -22 -3 -9 2 -25 10 -36 13 -17 16 -18 24 -5 8 12 10 10
10 -9 0 -14 8 -33 17 -43 15 -17 15 -20 3 -28 -13 -8 -12 -10 3 -10 13 0 17
-8 17 -35 0 -28 4 -35 19 -35 14 0 21 -8 23 -27 2 -16 8 -27 16 -25 7 1 12 -9
12 -25 0 -32 9 -47 31 -55 8 -3 21 -24 29 -47 7 -23 16 -41 20 -41 7 0 22 -33
24 -55 1 -5 8 -15 16 -22 10 -9 11 -12 3 -13 -7 0 -13 -8 -13 -17 0 -13 3 -14
8 -5 11 17 52 -22 52 -49 0 -12 8 -23 19 -26 21 -5 35 -54 19 -64 -5 -4 -3 -9
6 -12 9 -4 13 -13 10 -22 -5 -11 -2 -14 12 -8 12 4 15 3 10 -6 -5 -7 2 -19 17
-31 13 -11 30 -34 37 -52 18 -49 34 -82 42 -88 4 -3 9 -16 11 -29 2 -13 11
-29 20 -36 9 -7 17 -17 17 -22 0 -6 6 -16 14 -22 8 -7 12 -20 9 -30 -3 -13 2
-21 15 -25 14 -5 18 -13 15 -26 -4 -14 0 -20 11 -20 9 0 16 -8 16 -19 0 -10 9
-30 20 -44 12 -14 22 -39 23 -55 2 -23 6 -28 21 -24 12 3 17 1 13 -6 -4 -5 4
-30 17 -54 64 -115 96 -180 92 -187 -3 -4 8 -21 24 -36 17 -16 30 -34 30 -41
0 -15 30 -73 48 -92 6 -7 12 -24 12 -36 0 -13 8 -34 18 -47 9 -13 23 -35 30
-48 8 -13 22 -39 33 -57 10 -19 16 -34 12 -34 -3 0 1 -8 9 -17 23 -27 78 -149
78 -172 0 -12 5 -21 10 -21 6 0 10 -7 10 -15 0 -8 4 -15 9 -15 8 0 91 -158 91
-173 0 -4 11 -31 25 -62 14 -31 23 -60 20 -66 -4 -5 5 -21 19 -34 15 -14 29
-38 32 -55 4 -16 11 -30 16 -30 8 0 43 -71 88 -175 14 -34 109 -229 119 -245
17 -27 51 -106 51 -118 0 -7 5 -12 10 -12 6 0 10 -7 10 -15 0 -8 4 -23 10 -33
31 -57 80 -165 80 -178 0 -7 5 -14 10 -14 6 0 10 -8 10 -18 0 -10 6 -26 13
-37 7 -11 19 -36 27 -55 20 -56 47 -114 132 -290 44 -91 88 -183 98 -205 18
-42 60 -132 128 -275 22 -47 43 -96 47 -109 4 -14 20 -50 36 -80 16 -31 29
-59 29 -64 0 -8 12 -34 86 -194 19 -40 34 -75 34 -77 0 -3 18 -44 40 -91 22
-47 40 -92 40 -100 0 -8 4 -17 10 -20 5 -3 15 -25 21 -48 6 -23 19 -53 28 -67
9 -14 23 -43 30 -65 7 -22 32 -80 55 -130 106 -224 108 -231 96 -316 -6 -42
-6 -76 -1 -87 18 -33 39 -107 46 -157 4 -27 15 -72 26 -99 10 -27 16 -53 13
-58 -3 -4 0 -8 5 -8 6 0 11 -15 11 -34 0 -18 7 -39 15 -46 8 -6 14 -15 13 -18
-2 -11 14 -64 28 -91 8 -14 14 -36 14 -49 0 -13 8 -37 17 -55 9 -18 16 -36 15
-40 -3 -11 21 -80 30 -87 4 -3 9 -21 11 -40 8 -61 19 -100 29 -100 5 0 8 -6 7
-12 -3 -17 11 -70 23 -84 5 -7 11 -28 13 -48 3 -20 12 -53 20 -72 8 -20 15
-43 15 -51 0 -8 7 -21 16 -30 8 -9 13 -22 10 -29 -6 -15 22 -84 38 -95 5 -4 6
-16 3 -28 -3 -12 -1 -21 5 -21 5 0 7 -3 4 -8 -2 -4 3 -23 11 -42 9 -19 17 -39
18 -45 1 -5 3 -12 4 -15 1 -3 4 -20 7 -39 2 -19 11 -48 19 -64 8 -17 15 -35
15 -40 0 -5 7 -15 15 -21 8 -6 17 -35 20 -69 3 -32 9 -65 14 -75 25 -45 51
-110 55 -137 3 -16 13 -35 22 -42 10 -7 14 -20 11 -33 -3 -11 -1 -23 4 -26 5
-3 9 -21 9 -40 0 -23 6 -38 20 -46 11 -7 20 -23 20 -35 0 -12 8 -27 18 -33 16
-9 16 -11 -2 -21 -15 -9 -16 -13 -5 -20 8 -5 17 -3 22 4 6 8 7 5 3 -7 -4 -11
0 -26 10 -37 9 -10 14 -25 11 -33 -5 -13 21 -46 37 -46 4 0 14 -7 23 -15 12
-12 13 -19 3 -30 -7 -8 -11 -15 -9 -16 2 -1 23 -3 47 -5 33 -3 47 1 63 17 11
11 24 17 29 14 6 -4 13 1 16 9 3 9 17 16 29 16 13 0 25 4 27 10 2 5 12 11 23
13 11 1 31 10 45 19 14 9 37 20 52 23 15 4 32 13 39 21 7 8 20 12 30 9 11 -4
19 -2 19 4 0 5 15 13 34 16 21 4 38 16 47 31 10 19 19 24 35 20 14 -4 24 -1
28 9 3 9 18 15 36 15 16 0 52 14 80 31 28 17 57 28 65 25 18 -7 20 5 3 22 -9
9 -4 10 20 3 23 -7 30 -6 26 4 -4 9 2 11 20 8 19 -4 26 -1 26 10 0 9 10 15 25
15 14 0 34 7 44 16 10 9 25 14 35 10 9 -3 16 -2 16 4 0 9 29 22 60 27 22 3 61
15 95 30 17 7 45 18 63 25 17 7 32 16 32 19 0 4 24 13 53 20 28 8 61 18 72 24
11 6 27 12 35 13 8 2 23 7 35 12 75 34 106 44 149 48 17 1 35 9 41 17 8 11 33
14 112 14 56 -1 99 -5 97 -9 -3 -4 2 -8 10 -8 9 0 16 -9 16 -20 0 -11 7 -20
15 -20 19 0 46 -52 50 -96 3 -38 20 -64 41 -64 10 0 14 -13 14 -39 0 -22 5
-43 10 -46 6 -3 10 -16 10 -28 0 -13 9 -30 20 -40 11 -9 20 -26 20 -37 0 -11
6 -20 13 -20 13 0 37 -53 37 -82 0 -9 6 -18 14 -21 9 -4 12 -14 9 -26 -3 -12
-1 -21 4 -21 5 0 17 -20 27 -45 11 -25 23 -45 28 -45 4 0 8 -13 8 -28 0 -21 7
-32 25 -40 14 -7 25 -20 25 -31 0 -11 4 -22 10 -26 5 -3 7 -12 3 -20 -3 -8 -1
-15 5 -15 6 0 13 -13 17 -29 3 -16 15 -37 26 -47 10 -9 22 -35 26 -57 3 -22
18 -54 34 -72 16 -18 29 -39 29 -48 0 -20 20 -58 47 -86 12 -13 22 -35 22 -50
2 -51 4 -59 17 -54 14 5 40 -61 35 -92 -2 -11 1 -17 5 -12 9 9 44 -42 44 -65
0 -10 5 -18 10 -18 6 0 10 -6 10 -13 0 -7 9 -32 20 -55 11 -22 20 -50 20 -60
0 -11 16 -34 35 -51 19 -17 35 -34 34 -38 -5 -28 4 -55 20 -70 11 -9 17 -21
14 -26 -3 -4 5 -18 18 -30 14 -13 18 -22 11 -25 -7 -2 -12 -8 -12 -14 0 -6 7
-8 15 -4 10 3 15 -1 15 -14 0 -10 9 -34 20 -53 11 -19 18 -41 15 -49 -3 -7 4
-23 15 -35 11 -12 20 -29 20 -37 0 -7 6 -16 13 -19 6 -2 21 -33 31 -68 11 -35
25 -71 32 -79 7 -8 15 -26 18 -40 3 -14 9 -38 13 -55 3 -16 12 -34 19 -40 7
-5 15 -21 17 -35 3 -14 10 -44 16 -68 7 -23 9 -47 6 -52 -3 -6 2 -10 11 -10
13 0 15 -3 8 -10 -8 -8 -7 -26 2 -60 14 -55 11 -77 -23 -134 -12 -23 -23 -51
-23 -64 0 -13 -9 -40 -19 -60 -30 -57 -51 -108 -51 -126 0 -22 -31 -96 -40
-96 -4 0 -17 -35 -29 -79 -23 -84 -47 -141 -61 -141 -4 0 -11 -17 -15 -37 -7
-41 -40 -119 -53 -127 -4 -2 -9 -19 -10 -37 -1 -18 -6 -37 -11 -43 -5 -6 -20
-46 -35 -89 -15 -42 -38 -98 -51 -123 -14 -26 -25 -55 -25 -64 0 -9 -10 -37
-23 -61 -13 -24 -35 -80 -49 -125 -24 -72 -75 -201 -99 -246 -5 -10 -9 -28 -9
-40 0 -13 -9 -34 -20 -48 -11 -14 -20 -33 -20 -42 0 -9 -4 -20 -10 -23 -5 -3
-10 -14 -10 -23 0 -10 -14 -44 -30 -76 -17 -33 -29 -65 -26 -72 3 -7 1 -16 -5
-19 -5 -4 -6 -11 -3 -17 4 -6 2 -13 -4 -17 -14 -9 -73 -151 -66 -162 3 -5 0
-9 -5 -9 -6 0 -11 -9 -11 -19 0 -11 -4 -22 -9 -25 -5 -3 -14 -25 -20 -49 -6
-25 -17 -50 -26 -57 -8 -7 -15 -25 -15 -40 0 -15 -11 -48 -25 -71 -14 -24 -25
-54 -25 -65 0 -12 -9 -33 -21 -48 -12 -15 -19 -35 -16 -46 3 -11 -1 -24 -9
-31 -8 -6 -14 -20 -14 -29 0 -10 -4 -20 -8 -22 -5 -1 -18 -32 -30 -68 -44
-136 -95 -276 -106 -290 -7 -8 -19 -35 -26 -60 -7 -25 -19 -56 -26 -70 -25
-53 -34 -77 -48 -134 -8 -33 -22 -64 -31 -68 -8 -5 -15 -20 -15 -33 0 -14 -4
-25 -9 -25 -5 0 -11 -15 -14 -32 -6 -45 -40 -134 -59 -155 -13 -15 -28 -67
-32 -108 -1 -5 -7 -21 -15 -35 -12 -21 -24 -57 -34 -108 -2 -7 -9 -18 -15 -24
-7 -7 -12 -17 -12 -23 0 -6 -8 -26 -19 -45 -10 -19 -21 -57 -25 -84 -4 -27
-12 -56 -16 -65 -5 -9 -21 -43 -35 -76 -15 -33 -35 -78 -45 -100 -11 -22 -22
-60 -25 -83 -2 -23 -11 -53 -19 -65 -8 -12 -23 -51 -35 -87 -11 -36 -34 -103
-51 -150 -17 -47 -38 -107 -47 -135 -17 -55 -37 -112 -59 -163 -8 -18 -14 -40
-14 -48 0 -8 -14 -50 -31 -93 -26 -67 -36 -81 -67 -96 -52 -25 -590 -212 -912
-316 -69 -22 -239 -79 -378 -125 -139 -46 -257 -84 -263 -84 -6 0 -38 -11 -72
-24 -34 -12 -143 -49 -242 -81 -99 -32 -238 -77 -310 -100 -707 -233 -1144
-375 -1154 -375 -6 0 -19 -4 -29 -9 -22 -12 -34 -16 -497 -166 -214 -69 -428
-139 -475 -155 -47 -16 -267 -88 -490 -160 -223 -73 -466 -152 -540 -176 -74
-24 -220 -72 -325 -106 -104 -34 -309 -101 -455 -149 -146 -47 -332 -108 -415
-133 -128 -41 -337 -109 -1170 -382 -561 -184 -823 -267 -848 -268 l-31 -1
-58 185 c-32 102 -59 197 -60 213 l-1 27 -216 -5 c-191 -5 -373 -11 -961 -30
-85 -3 -297 -10 -470 -15 -173 -5 -380 -12 -460 -15 -80 -3 -228 -8 -330 -11
-102 -3 -284 -9 -405 -15 -121 -5 -305 -12 -410 -14 -104 -3 -305 -9 -445 -15
-140 -5 -381 -15 -535 -20 -154 -6 -329 -12 -390 -15 -60 -2 -198 -7 -305 -10
-107 -4 -203 -9 -212 -11 -12 -4 -18 -15 -18 -33 l0 -27 88 3 c48 1 170 5 272
8 102 3 246 8 320 10 74 2 189 6 255 9 250 13 809 20 910 12 22 -2 67 0 101 5
64 9 148 10 334 6 63 -2 128 0 144 5 16 4 34 4 40 1 6 -4 89 -6 186 -4 96 1
274 1 395 1 121 -1 225 -2 230 -1 164 7 238 7 274 -1 26 -5 47 -5 50 0 3 5 15
6 26 2 11 -4 30 -3 43 1 13 5 21 5 18 1 -2 -4 41 -7 97 -7 56 0 108 -3 115 -8
7 -6 12 -6 12 1 0 12 56 21 67 11 5 -4 75 -10 157 -13 82 -3 154 -10 160 -15
6 -5 20 -5 30 -1 11 3 38 3 60 -1 23 -5 44 -8 48 -9 4 0 3 -11 -2 -25 -6 -16
-6 -34 0 -51 9 -23 8 -25 -12 -20 -13 3 -17 3 -10 0 6 -3 12 -19 12 -35 0 -18
-4 -28 -10 -24 -7 4 -9 -2 -5 -18 5 -18 2 -28 -10 -35 -12 -6 -14 -12 -7 -16
8 -4 5 -13 -8 -26 -11 -11 -20 -31 -20 -45 0 -15 -6 -25 -14 -25 -9 0 -13 -7
-11 -20 3 -14 -3 -22 -19 -26 -18 -4 -22 -11 -18 -30 3 -18 0 -24 -13 -24 -10
0 -15 -5 -12 -13 3 -7 -1 -21 -9 -31 -7 -11 -11 -22 -9 -27 3 -4 -4 -5 -15 -2
-14 4 -20 0 -20 -10 0 -8 -5 -17 -11 -19 -5 -2 -12 -15 -13 -28 -5 -33 -16
-60 -26 -60 -5 0 -11 -9 -15 -20 -3 -11 -18 -25 -33 -32 -19 -9 -28 -22 -30
-42 -3 -22 -6 -26 -13 -15 -6 10 -9 7 -9 -12 0 -15 -7 -29 -15 -33 -8 -3 -15
-15 -15 -26 0 -11 -5 -20 -11 -20 -6 0 -8 -7 -5 -15 3 -10 -7 -30 -27 -51 -17
-19 -40 -49 -49 -65 -9 -17 -23 -38 -31 -47 -8 -9 -18 -28 -22 -42 -4 -14 -16
-33 -26 -43 -11 -10 -19 -27 -19 -38 0 -34 -28 -68 -52 -61 -17 4 -19 2 -14
-16 5 -15 -1 -30 -23 -53 -17 -17 -33 -40 -36 -50 -4 -11 -13 -19 -21 -19 -12
0 -12 -4 -4 -20 11 -20 5 -44 -9 -36 -4 3 -8 -9 -9 -25 -2 -26 -47 -82 -73
-91 -8 -3 -14 -26 -18 -70 -1 -5 -8 -8 -17 -8 -11 0 -15 6 -11 19 3 14 1 18
-9 14 -14 -5 -19 -27 -15 -75 1 -16 -2 -28 -7 -28 -5 0 -12 -9 -15 -20 -3 -13
-10 -18 -21 -14 -9 3 -16 1 -16 -5 0 -6 6 -11 13 -11 6 0 1 -6 -13 -13 -14 -7
-26 -19 -26 -27 -1 -8 -3 -19 -4 -25 -1 -5 -2 -14 -1 -19 1 -5 -8 -6 -19 -3
-17 4 -19 3 -9 -9 9 -11 8 -14 -5 -14 -13 0 -15 -6 -10 -26 5 -19 3 -25 -4
-20 -16 10 -44 -37 -36 -59 6 -14 4 -16 -7 -10 -12 7 -12 6 -1 -7 14 -17 1
-35 -17 -24 -5 4 -11 0 -13 -6 -3 -7 -13 -13 -23 -13 -21 0 -30 -45 -12 -57 7
-4 0 -12 -16 -19 -15 -7 -27 -18 -27 -26 0 -7 -6 -16 -14 -19 -8 -3 -12 -13
-8 -26 4 -18 3 -19 -18 -8 -20 11 -22 10 -17 -4 3 -8 2 -18 -4 -22 -7 -4 -6
-10 0 -18 13 -16 4 -26 -22 -26 -13 0 -17 -5 -13 -15 3 -9 -1 -18 -9 -21 -9
-4 -15 -19 -15 -35 0 -22 -6 -30 -25 -35 -15 -4 -25 -13 -25 -24 0 -11 -5 -22
-11 -26 -6 -3 -8 -15 -6 -26 3 -11 0 -21 -9 -25 -8 -3 -14 -14 -14 -24 0 -14
-7 -19 -26 -19 -17 0 -24 -4 -21 -13 6 -15 -27 -59 -37 -49 -4 3 -4 -1 -1 -9
3 -9 -1 -22 -10 -29 -8 -7 -15 -19 -15 -26 0 -21 -42 -82 -65 -93 -15 -8 -16
-10 -3 -8 9 1 16 -2 15 -8 -1 -5 -10 -9 -20 -8 -15 3 -17 -2 -11 -31 5 -28 2
-36 -15 -45 -12 -7 -21 -22 -21 -34 0 -13 -9 -26 -22 -32 -13 -6 -26 -24 -30
-43 -5 -17 -13 -32 -19 -32 -6 0 -9 -9 -6 -20 4 -14 -2 -23 -23 -32 -15 -6
-26 -17 -24 -23 3 -6 -11 -32 -31 -58 -20 -26 -34 -51 -31 -56 3 -5 -4 -11
-16 -14 -18 -5 -19 -8 -8 -21 9 -12 9 -16 1 -16 -15 0 -41 -25 -41 -39 0 -6
-5 -11 -11 -11 -6 0 -8 -8 -4 -19 5 -15 1 -18 -21 -13 -26 5 -27 3 -21 -27 5
-23 3 -31 -7 -31 -8 0 -17 6 -20 13 -3 6 -3 0 0 -15 5 -24 3 -28 -16 -28 -18
0 -21 -4 -18 -25 4 -18 0 -26 -13 -30 -14 -5 -19 -16 -19 -46 0 -21 -4 -39 -9
-39 -5 0 -8 6 -7 13 0 6 -3 13 -9 14 -5 0 -9 -4 -7 -10 2 -6 -3 -16 -12 -22
-8 -6 -16 -29 -18 -51 -2 -24 -8 -38 -15 -37 -7 2 -18 -6 -25 -16 -6 -10 -18
-17 -26 -14 -11 5 -13 0 -8 -25 6 -23 3 -33 -10 -40 -15 -9 -16 -13 -5 -26 11
-14 11 -16 -3 -16 -10 0 -19 -11 -22 -30 -4 -16 -13 -35 -22 -42 -13 -11 -14
-10 -3 10 7 13 8 22 2 22 -14 0 -21 -14 -23 -44 -1 -15 -9 -26 -16 -26 -9 0
-12 -6 -8 -16 4 -12 1 -14 -14 -9 -17 5 -19 2 -15 -24 2 -17 -1 -31 -6 -31 -5
0 -18 -9 -28 -19 -14 -14 -16 -22 -7 -31 8 -9 7 -11 -4 -10 -8 1 -24 2 -34 1
-20 -1 -20 -1 0 -17 19 -15 19 -15 -2 -11 -17 4 -20 0 -16 -25 2 -15 8 -31 13
-34 5 -3 9 -10 9 -16 0 -7 -4 -7 -12 -1 -36 27 -46 23 -44 -20 1 -28 -3 -41
-11 -40 -7 2 -10 -4 -7 -12 4 -8 10 -12 15 -9 5 3 6 -1 3 -9 -3 -8 -25 -20
-50 -27 -44 -13 -54 -23 -31 -34 9 -5 9 -7 0 -12 -7 -3 -13 -17 -13 -31 0 -14
-15 -42 -33 -63 -18 -21 -33 -49 -34 -62 -1 -12 -9 -28 -18 -34 -8 -6 -15 -16
-15 -21 0 -6 -9 -13 -21 -16 -16 -4 -20 -12 -17 -34 3 -24 0 -28 -19 -25 -12
2 -24 -2 -28 -8 -3 -5 -1 -10 4 -10 6 0 11 -4 11 -10 0 -5 -8 -10 -17 -10 -15
0 -15 -2 -4 -9 12 -8 12 -11 -1 -24 -8 -8 -23 -16 -34 -19 -12 -2 -24 -18 -33
-46 -11 -35 -17 -42 -32 -37 -14 5 -19 1 -19 -12 0 -14 -2 -15 -9 -5 -6 10
-10 9 -14 -7 -3 -13 1 -25 11 -31 12 -7 14 -12 5 -18 -6 -4 -14 -21 -16 -37
-3 -21 -9 -30 -23 -30 -13 0 -23 -11 -31 -35 -7 -19 -12 -32 -12 -28 -1 4 -10
0 -21 -9 -14 -13 -16 -19 -7 -25 9 -6 9 -8 0 -8 -7 0 -13 -11 -13 -25 0 -14
-5 -25 -11 -25 -15 0 -37 -25 -37 -41 2 -32 -3 -49 -13 -49 -6 0 -17 -6 -25
-14 -11 -11 -11 -16 -1 -19 7 -3 5 -6 -5 -6 -13 -1 -20 -13 -24 -42 -5 -28
-11 -39 -20 -35 -8 3 -14 1 -14 -4 0 -6 6 -10 13 -11 6 0 3 -4 -8 -8 -11 -5
-25 -4 -32 1 -16 13 -17 -4 -2 -19 19 -19 -27 -84 -70 -98 -12 -3 -21 -9 -22
-13 -7 -45 -6 -83 2 -87 17 -11 9 -23 -22 -30 -17 -4 -33 -14 -37 -23 -3 -9
-18 -28 -33 -43 -19 -19 -24 -30 -18 -42 7 -11 4 -17 -10 -22 -15 -5 -19 -13
-16 -36 4 -29 -9 -40 -18 -16 -3 6 -6 3 -6 -9 -1 -11 -12 -27 -26 -34 -14 -8
-21 -16 -16 -19 5 -3 7 -19 4 -35 l-6 -29 -19 24 -20 24 5 -25 c2 -14 8 -33
12 -43 6 -14 2 -20 -14 -24 -11 -3 -21 -11 -21 -19 0 -7 -9 -18 -19 -24 -13
-7 -17 -16 -13 -32 4 -17 2 -20 -11 -15 -10 4 -17 2 -17 -2 0 -5 -3 -17 -7
-27 -5 -13 -3 -15 7 -9 9 5 11 4 6 -3 -4 -7 -14 -12 -23 -12 -12 0 -14 -7 -10
-35 5 -33 -6 -49 -16 -22 -3 6 -6 0 -6 -15 -1 -14 -7 -29 -13 -31 -10 -4 -10
-6 0 -6 6 -1 12 -11 12 -24 0 -16 -11 -28 -38 -42 -20 -11 -43 -25 -50 -32
-16 -15 -16 -43 1 -43 6 -1 -3 -13 -21 -29 -17 -15 -32 -35 -32 -44 0 -9 -7
-17 -16 -17 -11 0 -13 -6 -9 -19 4 -13 0 -23 -11 -29 -11 -6 -13 -12 -6 -16
17 -10 -25 -73 -56 -85 -15 -5 -20 -10 -12 -10 8 -1 20 -9 27 -19 9 -15 7 -23
-8 -43 -13 -16 -19 -19 -19 -9 0 8 -8 0 -17 -18 -9 -19 -21 -31 -29 -28 -8 3
-11 0 -7 -11 3 -8 0 -19 -7 -23 -8 -5 -15 -16 -16 -26 -2 -9 -9 -21 -16 -25
-10 -7 -10 -11 2 -19 13 -8 12 -10 -2 -10 -10 0 -18 -4 -18 -10 0 -5 -7 -7
-15 -4 -11 5 -13 -1 -10 -26 5 -41 -12 -69 -38 -62 -16 4 -18 1 -12 -17 3 -11
2 -21 -3 -21 -13 0 -36 -75 -29 -99 6 -23 0 -26 -23 -12 -8 6 -18 7 -23 4 -5
-3 -3 -9 4 -14 12 -8 12 -10 0 -18 -8 -5 -11 -16 -6 -31 5 -16 4 -21 -6 -18
-17 6 -39 -35 -39 -72 0 -21 -6 -29 -23 -34 -20 -5 -44 -49 -50 -96 -1 -8 -12
-24 -24 -36 -13 -11 -20 -24 -17 -27 3 -3 -4 -15 -15 -26 -14 -14 -21 -34 -21
-58 0 -32 -7 -44 -43 -75 -23 -21 -48 -38 -54 -38 -19 0 -24 -36 -21 -150 l3
-105 23 40 c12 22 50 85 83 140 34 55 77 129 97 165 20 36 55 95 79 133 24 37
43 70 43 73 0 3 10 20 23 37 12 18 40 62 62 99 79 133 129 214 160 263 18 28
43 69 56 92 63 111 184 308 191 311 4 2 8 8 8 14 0 5 39 73 88 151 48 78 93
153 101 167 31 53 76 127 106 175 18 28 76 122 129 210 53 88 101 167 106 175
6 8 28 44 49 80 22 36 65 106 96 155 68 110 52 84 269 450 27 44 61 98 76 120
16 22 41 63 55 90 15 28 39 69 53 92 15 23 54 86 86 140 33 54 79 130 103 168
24 39 49 79 55 90 7 11 31 49 53 85 34 53 160 260 195 320 73 124 129 217 162
270 64 102 128 211 128 218 0 3 6 13 14 21 8 9 79 124 158 256 195 324 252
418 300 495 23 36 55 90 73 120 44 75 86 144 171 280 39 63 91 149 115 190 24
41 80 134 124 205 45 72 96 156 113 188 18 32 43 73 56 90 13 18 36 54 51 82
15 27 40 68 56 91 16 24 33 53 38 66 5 13 27 51 50 85 22 34 41 66 41 72 0 5
6 16 13 23 18 18 77 113 77 123 0 4 10 22 23 39 12 17 33 51 46 76 13 25 32
54 42 66 11 11 19 25 19 30 0 6 12 21 26 35 38 35 79 102 65 107 -18 6 -13 22
8 22 14 0 34 28 75 105 31 58 84 148 118 200 35 51 83 128 108 170 57 98 76
116 104 105 11 -4 59 -14 106 -20 48 -7 101 -20 120 -29 30 -14 36 -23 47 -76
7 -33 15 -80 18 -103 6 -56 34 -146 61 -197 18 -36 25 -40 62 -43 22 -2 54 3
69 11 23 12 76 26 118 32 6 1 24 7 40 14 61 25 263 88 464 145 30 8 58 13 63
10 4 -3 8 0 8 5 0 6 11 11 25 11 14 0 33 4 43 10 25 14 172 60 191 60 9 0 28
6 43 14 14 8 45 17 67 21 23 4 41 11 41 17 0 6 7 8 15 5 8 -4 17 -2 20 3 4 6
19 10 34 10 15 0 31 4 37 9 5 6 20 12 34 14 35 7 133 39 145 48 6 4 35 12 65
18 30 7 64 14 75 16 11 2 47 13 79 25 81 27 116 26 140 -7 18 -24 19 -38 11
-217 -8 -179 -13 -426 -13 -611 0 -44 -1 -98 -2 -120 -1 -22 -2 -74 -1 -115 1
-69 1 -94 -3 -200 0 -19 -4 -37 -8 -40 -9 -7 -11 -140 -2 -169 6 -19 4 -22 -7
-16 -11 7 -12 6 -3 -6 14 -17 17 -129 5 -148 -6 -9 -6 -24 0 -39 13 -34 14
-223 1 -231 -7 -4 -8 -12 -2 -21 13 -20 12 -33 0 -25 -7 4 -10 -53 -10 -164 0
-94 -3 -171 -8 -171 -9 0 -7 -197 2 -228 4 -12 2 -30 -4 -42 -7 -13 -7 -26 -1
-38 7 -13 6 -23 -2 -31 -9 -9 -9 -16 1 -31 15 -25 16 -72 1 -87 -7 -7 -12 -43
-12 -85 1 -56 -3 -75 -16 -85 -11 -8 -12 -15 -5 -20 16 -12 23 -38 14 -53 -4
-7 -4 -26 0 -42 6 -19 4 -40 -6 -64 -11 -26 -12 -39 -4 -49 18 -21 21 -55 4
-55 -16 0 -19 -16 -5 -24 5 -4 9 -27 9 -52 0 -25 3 -48 6 -51 3 -3 -2 -11 -10
-18 -14 -10 -15 -15 -4 -35 7 -14 9 -25 3 -27 -5 -2 -7 -19 -5 -38 3 -24 0
-35 -9 -35 -8 0 -6 -5 6 -13 11 -9 14 -16 7 -21 -7 -4 -8 -17 -1 -38 5 -17 7
-34 4 -36 -3 -3 0 -11 6 -19 9 -10 6 -13 -14 -13 -24 0 -25 -2 -17 -31 9 -29
8 -39 -7 -76 -11 -31 -12 -63 -1 -63 6 0 8 -12 4 -30 -3 -17 -2 -29 3 -26 5 3
11 -4 15 -17 3 -12 2 -23 -3 -25 -5 -2 -7 -12 -4 -23 3 -10 0 -26 -7 -34 -10
-12 -10 -15 0 -15 9 0 10 -3 1 -13 -6 -8 -9 -29 -6 -48 3 -19 8 -60 10 -91 4
-47 2 -58 -10 -58 -8 0 -15 -7 -15 -15 0 -8 4 -15 9 -15 9 0 8 -54 -3 -208 -2
-29 -9 -59 -15 -66 -9 -10 -9 -16 -1 -21 6 -4 9 -14 5 -23 -3 -9 -8 -48 -11
-86 -3 -39 -7 -79 -10 -88 -3 -10 -1 -18 4 -18 14 0 22 -52 11 -73 -6 -10 -15
-14 -21 -11 -8 5 -9 1 -3 -12 12 -31 15 -204 3 -204 -7 0 -7 -5 1 -14 6 -7 9
-20 6 -27 -10 -29 -12 -90 -3 -95 5 -3 7 -13 4 -21 -4 -9 -2 -21 4 -28 16 -19
-5 -29 -30 -15 -22 12 -25 7 -10 -20 9 -16 8 -18 -6 -13 -13 5 -15 -1 -9 -41
6 -34 4 -46 -6 -46 -7 0 -9 -3 -6 -6 4 -4 13 -1 22 6 13 11 14 10 9 -4 -4 -11
-2 -16 7 -14 7 2 15 -5 17 -16 3 -15 0 -18 -21 -13 -35 9 -39 -2 -14 -37 42
-58 54 -126 23 -126 -15 0 -13 -104 3 -124 14 -17 0 -29 -23 -20 -9 3 -16 1
-16 -4 0 -6 10 -12 22 -14 25 -4 37 -28 14 -28 -18 0 -21 -21 -5 -37 7 -7 6
-12 -5 -16 -10 -4 -16 -1 -16 7 0 17 -28 41 -38 32 -4 -4 1 -14 12 -21 10 -8
15 -19 11 -25 -4 -7 -1 -16 6 -21 11 -7 10 -9 -3 -9 -28 0 -21 -24 13 -49 22
-16 28 -26 19 -31 -7 -4 -9 -16 -6 -28 8 -23 -12 -62 -31 -62 -22 0 -14 -19
15 -35 27 -16 18 -16 -35 0 -17 5 -23 2 -23 -9 0 -9 6 -16 14 -16 16 0 46 -42
46 -65 0 -8 5 -15 10 -15 6 0 10 -4 10 -10 0 -5 -6 -10 -14 -10 -14 0 -32 -81
-29 -127 1 -14 -4 -23 -13 -23 -19 0 -18 -16 2 -24 12 -5 15 -19 13 -64 -2
-58 6 -91 25 -105 7 -4 3 -9 -10 -13 -16 -4 -20 -11 -16 -27 4 -16 2 -19 -11
-14 -13 5 -17 1 -17 -17 0 -24 24 -41 41 -30 5 3 9 1 9 -5 0 -5 -8 -12 -17
-14 -16 -4 -16 -5 -1 -6 26 -2 8 -54 -23 -62 -23 -7 -23 -7 -1 -8 24 -1 30
-16 10 -24 -9 -3 -5 -13 12 -32 l25 -28 -30 7 c-26 5 -27 5 -10 -5 11 -7 22
-13 24 -15 1 -1 -4 -13 -13 -26 -9 -12 -16 -32 -16 -43 0 -15 -7 -21 -25 -23
-14 -1 -25 3 -25 9 0 5 -4 7 -10 4 -17 -10 -12 -45 5 -39 8 4 15 2 15 -4 0 -6
-6 -13 -12 -15 -10 -4 -10 -6 0 -6 6 -1 12 -8 12 -17 0 -10 6 -14 15 -10 8 3
15 2 16 -2 5 -69 4 -84 -8 -93 -8 -7 -10 -16 -5 -23 5 -6 9 -28 11 -48 2 -37
1 -38 -30 -38 -28 0 -31 -2 -17 -13 9 -6 20 -30 24 -51 6 -36 5 -39 -13 -34
-17 5 -20 1 -19 -18 0 -13 6 -24 11 -24 6 0 20 -16 33 -35 17 -26 19 -35 8
-35 -8 0 -16 4 -18 10 -2 6 -8 6 -18 0 -13 -9 -13 -11 0 -19 12 -8 12 -13 -4
-29 -9 -11 -13 -23 -8 -26 13 -8 22 -46 11 -46 -5 0 -9 7 -9 15 0 28 -18 15
-24 -17 -7 -40 6 -108 17 -90 14 22 28 13 21 -14 -5 -18 -3 -25 4 -20 6 4 8
-2 5 -14 -3 -12 -19 -24 -37 -29 -17 -5 -24 -10 -15 -10 20 -1 33 -28 18 -37
-6 -4 -4 -13 7 -25 16 -18 16 -19 -4 -19 -12 0 -22 -4 -22 -10 0 -5 7 -10 15
-10 8 0 15 -4 15 -9 0 -5 3 -16 6 -25 3 -9 1 -16 -5 -16 -6 0 -11 7 -11 15 0
8 -4 15 -9 15 -13 0 -20 -51 -10 -77 6 -18 5 -23 -7 -23 -11 0 -12 -4 -5 -19
7 -12 7 -30 1 -52 -12 -42 -12 -48 0 -29 8 12 10 9 10 -12 0 -15 4 -29 9 -32
13 -8 11 -76 -2 -76 -5 0 -2 -9 8 -20 9 -10 15 -26 12 -33 -3 -8 -1 -19 5 -25
12 -12 1 -55 -13 -46 -5 3 -7 9 -4 14 3 4 -5 6 -17 2 -16 -4 -19 -2 -13 8 5 9
4 11 -3 6 -7 -4 -12 -14 -12 -22 0 -17 -17 -19 -23 -1 -2 6 -8 9 -12 5 -5 -5
2 -17 15 -28 l23 -20 -24 -1 -24 0 22 -11 c23 -11 40 -44 29 -56 -4 -3 -9 4
-13 16 -10 39 -23 23 -17 -22 4 -27 2 -46 -5 -50 -6 -4 -11 -12 -11 -17 0 -6
4 -7 10 -4 5 3 10 2 10 -4 0 -5 -4 -13 -10 -16 -6 -3 -10 -14 -10 -23 1 -16 2
-15 11 1 9 15 12 16 25 2 13 -13 13 -17 0 -38 -9 -12 -18 -40 -21 -61 -2 -21
-11 -49 -19 -61 -18 -27 -5 -55 17 -37 12 10 13 8 9 -14 -4 -25 -3 -26 22 -20
16 4 26 2 26 -4 0 -6 -4 -8 -10 -5 -5 3 -10 1 -10 -5 0 -7 -7 -9 -16 -6 -13 5
-14 4 -6 -7 7 -8 9 -17 4 -21 -4 -4 1 -12 11 -17 21 -12 23 -39 2 -39 -8 0
-15 -4 -15 -9 0 -5 -10 -12 -22 -15 -21 -6 -21 -7 -5 -17 9 -5 17 -17 17 -24
0 -8 6 -15 13 -15 8 0 7 -4 -3 -10 -12 -8 -13 -13 -3 -29 11 -17 10 -22 -5
-30 -16 -10 -16 -10 1 -11 24 0 21 -16 -5 -25 -67 -23 -66 -21 -28 -38 19 -9
29 -16 23 -17 -7 0 -13 -7 -13 -15 0 -7 -8 -19 -17 -24 -16 -9 -16 -10 3 -11
12 0 25 -10 33 -26 11 -25 11 -26 -19 -19 -19 4 -30 3 -30 -4 0 -6 9 -11 20
-11 12 0 20 -7 20 -17 0 -13 -3 -14 -12 -5 -16 16 -28 15 -28 -1 0 -15 31 -47
44 -47 5 0 6 7 2 15 -3 8 0 15 7 15 8 0 13 -12 12 -27 0 -16 -6 -28 -12 -28
-7 0 -12 -4 -10 -10 1 -5 5 -9 10 -7 4 1 7 -2 7 -8 0 -5 -13 -10 -30 -10 -20
0 -30 -5 -30 -15 0 -8 5 -15 11 -15 7 0 9 -10 5 -25 -5 -18 -1 -27 14 -35 24
-13 26 -33 5 -54 -14 -14 -13 -17 12 -33 15 -9 30 -18 32 -20 9 -6 -22 -31
-34 -27 -9 4 -15 -9 -20 -45 -4 -28 -11 -54 -16 -57 -5 -3 -6 -16 -3 -30 4
-14 1 -31 -7 -40 -7 -9 -9 -18 -3 -22 5 -4 10 -21 11 -38 2 -28 0 -31 -22 -31
-14 0 -25 3 -25 8 0 5 -7 9 -15 9 -8 0 -15 -4 -15 -10 0 -5 7 -10 15 -10 8 0
15 -7 15 -16 0 -11 -6 -15 -20 -11 -12 3 -20 0 -20 -7 0 -8 10 -11 30 -8 28 4
66 -18 53 -32 -4 -3 -1 -6 6 -6 8 0 11 -6 7 -16 -4 -9 -2 -22 4 -29 8 -9 6
-14 -5 -19 -9 -3 -13 -10 -10 -16 3 -5 1 -10 -6 -10 -8 0 -7 -5 2 -16 12 -15
11 -16 -11 -10 -14 4 -34 18 -45 31 -11 14 -25 21 -30 17 -15 -10 -13 -64 2
-80 17 -18 32 -15 26 7 -3 10 0 21 5 25 14 9 36 -22 37 -52 0 -16 5 -26 13
-24 16 3 15 -8 -3 -32 -8 -11 -15 -28 -15 -38 0 -10 -4 -18 -10 -18 -5 0 -10
-4 -10 -10 0 -14 16 -12 32 3 11 12 16 11 28 -2 15 -16 23 -71 11 -71 -4 0
-12 5 -18 11 -16 16 -37 1 -23 -16 6 -7 8 -20 4 -29 -7 -18 -24 -22 -24 -6 0
6 -4 10 -10 10 -5 0 -10 -7 -10 -15 0 -8 4 -15 9 -15 5 0 11 -8 14 -19 3 -15
0 -18 -17 -14 -16 4 -18 2 -7 -5 12 -9 13 -13 2 -26 -12 -14 -10 -20 12 -40
14 -13 29 -21 32 -18 3 4 1 -7 -5 -23 -9 -23 -8 -30 3 -36 17 -10 15 -48 -2
-59 -9 -5 -10 -10 -2 -14 23 -15 10 -25 -25 -19 -35 6 -36 5 -23 -16 8 -11 19
-21 26 -21 7 0 13 -9 13 -20 0 -11 6 -20 14 -20 8 0 17 -7 20 -16 4 -12 1 -14
-13 -9 -16 5 -18 2 -14 -16 5 -18 3 -20 -16 -14 -15 4 -21 2 -21 -9 0 -8 9
-18 21 -21 12 -4 18 -12 15 -21 -3 -8 -1 -26 4 -40 7 -19 15 -24 28 -20 14 5
14 4 -2 -9 -16 -12 -17 -17 -6 -30 16 -19 3 -20 -16 0 -18 17 -24 18 -43 6
-11 -7 -11 -14 3 -41 9 -19 12 -38 8 -44 -9 -11 -8 -80 1 -106 26 -75 28 -120
6 -120 -5 0 -7 11 -3 25 4 16 2 25 -5 25 -7 0 -11 8 -9 18 4 22 -34 24 -45 2
-4 -9 -5 -2 -3 16 3 17 1 35 -5 41 -6 6 -4 20 6 39 8 16 15 37 15 46 0 9 8 21
17 27 21 12 13 24 -11 15 -9 -3 -16 -13 -16 -21 0 -11 -7 -13 -32 -7 -29 6
-31 5 -20 -9 8 -9 20 -13 28 -10 8 3 14 1 14 -5 0 -5 -10 -13 -22 -17 -18 -5
-19 -8 -7 -12 11 -3 15 -12 11 -28 -2 -15 0 -25 7 -25 6 0 11 -4 11 -10 0 -5
-13 -8 -30 -6 -32 4 -41 -8 -14 -18 9 -3 14 -16 13 -28 -1 -13 3 -34 9 -48 6
-14 13 -33 16 -42 3 -10 15 -18 26 -18 12 0 18 -5 15 -10 -4 -6 -11 -8 -16 -5
-17 11 -9 -15 10 -32 19 -16 19 -17 1 -32 -13 -12 -16 -22 -10 -36 8 -19 9
-19 9 1 1 12 8 25 17 28 24 9 24 8 9 -21 -14 -26 -13 -29 7 -44 16 -13 18 -18
7 -22 -10 -4 -9 -6 4 -6 9 -1 17 -6 17 -12 0 -6 -9 -8 -23 -4 -22 6 -22 6 2
-15 13 -11 21 -23 17 -27 -3 -4 -12 -1 -18 5 -7 7 -20 12 -29 12 -10 0 -24 6
-31 13 -18 18 -68 30 -68 17 0 -5 9 -10 19 -10 10 0 29 -9 42 -20 20 -16 21
-19 7 -20 -27 0 -11 -26 28 -45 38 -18 47 -40 12 -30 -13 4 -27 11 -33 16 -17
16 -33 10 -28 -10 5 -19 17 -20 318 -21 l312 0 1 4102 c1 3139 -2 4111 -11
4136 -8 25 -9 35 0 40 18 11 14 512 -4 519 -18 7 -17 23 1 23 13 0 15 113 15
832 0 1073 10 1963 21 1994 8 19 17 24 44 24 19 0 36 4 38 9 2 5 21 12 43 15
63 8 105 18 111 27 3 5 16 9 29 9 13 0 27 5 30 10 3 5 17 10 30 10 13 0 27 4
30 10 3 5 22 10 41 10 19 0 33 4 30 9 -4 5 2 7 13 4 10 -3 22 0 25 6 4 6 20
11 35 11 15 0 31 4 37 9 5 5 46 18 90 29 45 11 90 25 100 30 11 5 44 16 74 25
135 37 207 61 228 74 12 7 26 12 31 9 5 -3 41 5 82 19 40 13 77 21 82 18 5 -3
27 4 50 15 47 22 182 69 242 84 22 6 49 15 60 20 12 5 27 10 35 11 8 2 20 5
25 9 6 3 36 11 67 18 32 6 60 15 63 19 2 5 32 14 65 22 33 7 60 16 60 20 0 4
18 10 40 14 22 4 42 11 45 15 3 5 12 7 19 4 8 -3 17 -1 21 5 3 6 17 11 31 11
13 0 53 12 87 26 51 22 118 44 172 57 20 5 110 39 127 48 10 5 27 9 38 9 12 0
35 7 52 16 18 9 47 18 65 20 18 2 40 10 49 19 8 8 25 15 38 15 12 0 26 4 32 9
5 6 25 13 44 16 50 8 100 28 100 38 0 5 9 7 20 4 11 -3 23 -1 26 5 3 5 13 7
20 4 8 -3 33 5 54 19 22 14 50 25 63 25 13 0 27 4 33 9 5 4 36 13 68 20 33 6
68 19 79 29 10 9 21 16 23 15 2 -1 9 -1 16 2 76 23 95 29 110 30 9 1 22 6 30
12 7 7 25 14 38 16 54 10 86 20 99 31 8 6 16 10 18 9 1 -2 4 -3 6 -2 1 0 11 2
22 4 40 7 202 61 265 88 14 6 28 10 32 9 4 -1 28 7 53 18 25 11 49 19 53 19
16 -2 52 14 52 23 0 6 7 8 15 5 8 -4 17 -2 20 4 4 5 11 7 16 3 5 -3 15 -1 22
5 7 5 24 12 37 15 14 3 65 19 114 36 49 16 96 30 105 30 9 0 21 4 27 8 5 5 52
21 104 37 52 15 106 34 120 41 14 7 47 18 75 24 27 6 52 15 55 19 5 7 73 29
194 61 38 10 74 24 79 29 6 6 26 11 44 11 18 0 33 4 33 9 0 5 18 12 40 16 22
4 40 11 40 15 0 5 19 14 43 20 41 9 161 45 202 60 11 4 43 15 70 25 28 10 58
17 67 17 9 0 22 6 29 14 6 8 26 14 43 14 18 0 36 4 42 8 14 14 139 55 169 56
6 1 13 5 16 9 3 5 37 17 75 27 38 11 89 26 114 34 25 8 72 23 105 32 33 9 68
20 77 25 10 5 30 9 45 9 28 0 74 10 143 31 26 8 43 7 65 -2 23 -9 26 -13 13
-16 -20 -5 -24 -18 -9 -28 14 -8 9 -45 -7 -45 -9 0 -11 -7 -7 -21 4 -12 1 -27
-8 -37 -9 -9 -18 -34 -22 -54 -4 -21 -11 -38 -16 -38 -5 0 -9 -16 -9 -36 0
-20 -6 -48 -14 -62 -28 -55 -46 -104 -41 -111 2 -5 -7 -21 -20 -35 -14 -15
-25 -34 -25 -42 0 -7 -4 -14 -10 -14 -5 0 -10 -25 -10 -55 0 -40 -5 -60 -18
-73 -18 -18 -55 -105 -66 -155 -4 -15 -16 -37 -28 -49 -15 -15 -21 -32 -19
-50 2 -19 -3 -30 -14 -34 -10 -4 -13 -13 -10 -25 5 -13 1 -19 -10 -19 -12 0
-16 -8 -14 -27 1 -16 -3 -41 -10 -56 -6 -16 -11 -33 -11 -38 0 -5 -3 -9 -8 -9
-10 0 -29 -47 -36 -92 -4 -21 -10 -38 -15 -38 -9 0 -41 -71 -41 -93 0 -10 -5
-17 -12 -17 -6 0 -8 -3 -5 -7 4 -3 3 -11 -3 -18 -5 -6 -11 -28 -13 -49 -3 -20
-9 -42 -16 -49 -6 -6 -11 -23 -11 -38 0 -18 -6 -28 -20 -32 -13 -3 -18 -11
-14 -20 3 -9 -4 -25 -16 -37 -11 -11 -19 -24 -16 -28 5 -8 -15 -89 -33 -134
-6 -16 -17 -28 -25 -28 -8 0 -17 -10 -21 -22 -16 -62 -30 -103 -35 -108 -3 -3
-13 -31 -23 -62 -10 -32 -24 -63 -31 -70 -7 -7 -13 -16 -15 -20 -1 -4 -8 -22
-15 -40 -8 -18 -17 -52 -21 -76 -4 -23 -13 -49 -21 -56 -8 -8 -14 -24 -14 -36
0 -13 -8 -24 -19 -27 -13 -3 -23 -23 -35 -74 -9 -38 -14 -75 -10 -81 4 -6 3
-8 -3 -5 -5 3 -17 -16 -27 -44 -11 -28 -24 -49 -33 -49 -10 0 -12 -6 -8 -20 4
-12 2 -20 -6 -20 -9 0 -8 -4 1 -15 9 -10 9 -15 1 -15 -6 0 -11 -6 -11 -13 0
-17 -44 -59 -53 -50 -7 6 -11 -25 -8 -58 1 -8 -5 -29 -14 -45 -8 -16 -15 -44
-15 -61 0 -18 -4 -33 -10 -33 -13 0 -40 -54 -40 -80 0 -11 -3 -20 -8 -20 -13
0 -35 -63 -36 -105 -1 -23 -7 -49 -13 -57 -7 -8 -10 -18 -5 -22 4 -4 -1 -12
-11 -17 -9 -6 -17 -21 -17 -34 0 -13 -5 -27 -10 -30 -6 -4 -8 -10 -5 -15 3 -4
-2 -10 -10 -14 -17 -6 -45 -69 -45 -101 0 -12 -3 -25 -7 -29 -4 -3 -8 -17 -10
-29 -2 -12 -12 -30 -24 -39 -11 -10 -22 -32 -24 -49 -3 -18 -14 -41 -26 -52
-14 -13 -19 -28 -16 -43 3 -15 0 -24 -9 -24 -7 0 -15 -18 -19 -43 -4 -23 -15
-61 -26 -85 -10 -23 -28 -61 -38 -85 -11 -23 -22 -53 -26 -67 -10 -34 -25 -51
-38 -43 -6 3 -7 1 -3 -6 4 -6 0 -18 -8 -27 -9 -8 -16 -23 -17 -32 -4 -65 -6
-80 -13 -100 -4 -13 -13 -21 -21 -19 -8 4 -14 -8 -18 -38 -9 -60 -47 -168 -65
-181 -8 -6 -12 -16 -8 -22 3 -6 2 -13 -3 -16 -5 -3 -7 -15 -4 -25 3 -13 -2
-21 -17 -26 -16 -5 -19 -10 -11 -18 16 -16 14 -25 -6 -31 -12 -4 -19 -17 -20
-41 -1 -19 -11 -47 -22 -61 -12 -15 -21 -36 -21 -46 0 -11 -9 -22 -20 -25 -15
-4 -18 -11 -14 -29 5 -18 2 -24 -11 -24 -13 0 -16 -7 -13 -29 3 -23 1 -28 -11
-23 -14 5 -14 3 -3 -10 9 -11 10 -18 2 -23 -5 -3 -10 -14 -10 -24 0 -10 -7
-24 -15 -31 -10 -9 -15 -9 -15 -1 0 6 -5 11 -11 11 -5 0 -8 -3 -6 -7 4 -8 -6
-94 -17 -148 -4 -16 -14 -35 -22 -41 -9 -7 -11 -13 -4 -16 6 -2 5 -11 -5 -25
-10 -14 -21 -20 -32 -16 -14 6 -15 0 -10 -43 5 -43 3 -52 -15 -63 -11 -7 -17
-18 -14 -27 3 -9 1 -12 -4 -9 -6 3 -10 -2 -10 -12 0 -10 -7 -29 -16 -41 -8
-12 -11 -22 -5 -22 15 0 7 -29 -13 -43 -11 -8 -20 -31 -23 -59 -4 -33 -11 -48
-23 -51 -12 -3 -19 -19 -24 -56 -5 -35 -11 -51 -21 -51 -9 0 -15 -9 -15 -22 0
-35 -23 -88 -38 -88 -9 0 -12 -6 -8 -16 4 -12 2 -15 -9 -10 -11 4 -15 -2 -15
-27 0 -18 -11 -48 -24 -68 -16 -24 -23 -44 -19 -59 3 -12 2 -25 -3 -29 -5 -3
-15 -16 -22 -28 -10 -19 -10 -23 0 -23 8 -1 6 -6 -5 -14 -12 -10 -15 -16 -7
-21 7 -4 3 -15 -13 -31 -23 -23 -39 -69 -41 -119 -1 -13 -9 -21 -23 -23 -21
-3 -29 -23 -24 -55 1 -4 -5 -20 -14 -36 -23 -46 -45 -114 -45 -143 0 -16 -5
-28 -11 -28 -6 0 -9 -8 -6 -19 3 -14 0 -17 -14 -14 -15 4 -19 0 -19 -20 0 -30
-19 -77 -32 -77 -4 0 -8 -16 -8 -35 0 -35 -30 -101 -56 -121 -7 -6 -11 -13 -9
-16 7 -7 -16 -71 -28 -79 -5 -4 -9 -23 -9 -43 0 -20 -4 -36 -10 -36 -5 0 -9
-8 -8 -18 3 -25 -11 -63 -20 -57 -5 3 -6 -4 -3 -15 3 -10 -2 -26 -11 -35 -9
-9 -16 -24 -16 -33 0 -9 -11 -30 -25 -46 -14 -16 -25 -42 -25 -58 0 -16 -5
-28 -12 -28 -9 0 -8 -4 2 -10 11 -7 11 -10 2 -10 -18 0 -44 -67 -37 -91 4 -13
2 -19 -9 -19 -9 0 -16 -6 -17 -12 -2 -29 -8 -51 -18 -61 -6 -6 -11 -19 -11
-29 0 -10 -7 -21 -15 -24 -8 -4 -15 -12 -15 -20 0 -7 -8 -18 -17 -23 -13 -8
-15 -13 -6 -18 17 -12 4 -61 -19 -69 -17 -5 -19 -12 -15 -40 4 -23 0 -40 -13
-57 -14 -18 -16 -27 -8 -35 9 -9 7 -16 -5 -30 -9 -10 -17 -25 -17 -32 0 -7 -8
-22 -17 -32 -13 -14 -14 -21 -5 -30 15 -15 16 -31 1 -23 -6 4 -13 -2 -16 -14
-3 -12 -9 -21 -14 -21 -5 0 -6 -6 -3 -13 2 -7 -7 -24 -21 -37 -18 -17 -23 -30
-19 -46 4 -17 1 -26 -10 -30 -9 -3 -16 -16 -16 -29 0 -13 -7 -25 -15 -29 -8
-3 -15 -16 -15 -29 0 -13 -3 -27 -7 -31 -4 -4 -6 -27 -4 -52 2 -39 0 -46 -19
-51 -13 -4 -19 -11 -16 -20 3 -8 6 -18 7 -21 0 -4 4 2 9 13 8 19 8 19 16 1 5
-13 2 -23 -8 -30 -11 -8 -14 -21 -11 -39 3 -15 0 -34 -7 -42 -9 -11 -9 -22 -1
-46 6 -19 7 -37 2 -43 -4 -6 -11 -28 -15 -49 -6 -32 -3 -42 16 -62 13 -14 33
-25 44 -25 12 0 24 -7 28 -15 3 -9 18 -15 40 -15 22 0 36 -6 40 -16 5 -14 9
-14 22 -3 13 11 17 10 25 -4 7 -11 22 -17 45 -17 20 0 33 -4 29 -10 -3 -5 6
-12 20 -16 14 -3 25 -9 25 -13 0 -3 17 -6 38 -5 20 0 50 -6 66 -14 16 -7 39
-12 52 -9 16 3 24 0 24 -10 0 -18 43 -34 53 -19 5 8 12 5 22 -8 7 -10 18 -15
24 -12 5 4 19 -1 31 -11 11 -10 24 -18 28 -19 22 -3 42 -18 42 -34 0 -10 7
-20 15 -24 26 -10 17 -29 -10 -22 -14 4 -25 2 -25 -4 0 -5 6 -10 13 -10 7 0
24 -10 37 -23 14 -12 28 -21 32 -20 4 2 9 -12 12 -30 14 -94 16 -117 6 -117
-5 0 -12 -12 -16 -28 -3 -15 -10 -39 -16 -55 -8 -19 -7 -31 1 -41 9 -11 8 -14
-6 -12 -14 1 -16 -7 -14 -49 3 -60 15 -85 41 -85 23 0 26 -5 34 -53 6 -36 5
-37 -19 -31 -23 6 -23 5 -12 -20 7 -14 20 -26 30 -26 9 0 17 -7 17 -15 0 -8
-5 -15 -11 -15 -5 0 -7 5 -4 10 3 6 1 10 -4 10 -16 0 -13 -16 4 -34 8 -8 15
-19 15 -25 0 -6 12 -11 28 -11 21 0 24 -2 12 -10 -12 -7 -12 -12 -2 -22 6 -6
12 -22 12 -35 0 -13 5 -23 11 -23 6 0 1 -13 -10 -29 -18 -24 -19 -30 -6 -35
11 -4 15 1 15 17 l1 22 17 -21 c9 -11 20 -20 24 -20 3 1 10 -3 15 -8 4 -5 -3
-6 -19 -2 -15 3 -30 2 -33 -4 -4 -6 6 -10 24 -10 25 0 31 -4 31 -22 0 -13 5
-30 10 -38 7 -11 4 -19 -13 -32 -27 -20 -17 -34 12 -17 24 16 30 11 33 -24 1
-15 6 -27 10 -27 4 0 8 -9 8 -20 0 -31 22 -71 37 -66 7 3 13 1 13 -5 0 -6 5
-7 12 -3 8 5 9 2 4 -12 -22 -53 -16 -70 13 -41 10 10 12 8 11 -8 -3 -27 10
-65 22 -65 6 0 7 -7 4 -16 -3 -9 5 -30 19 -48 21 -28 24 -38 15 -60 -9 -24 -7
-28 16 -36 14 -6 31 -10 37 -10 7 0 4 -7 -6 -14 -16 -13 -16 -14 6 -20 33 -8
57 -62 57 -126 0 -43 3 -53 20 -57 22 -6 27 -23 8 -23 -9 0 -8 -4 2 -10 12 -8
13 -11 1 -19 -9 -6 -10 -11 -2 -15 6 -4 11 -3 11 3 0 6 7 8 15 5 20 -8 19 -24
-2 -24 -14 0 -13 -4 5 -23 12 -13 19 -27 15 -30 -3 -4 3 -7 15 -7 24 0 38 -16
20 -23 -9 -4 -9 -6 -1 -6 6 -1 9 -10 6 -22 -5 -18 -3 -20 16 -14 12 4 21 2 21
-4 0 -6 -7 -11 -15 -11 -8 0 -15 -4 -15 -10 0 -5 5 -10 11 -10 6 0 17 -7 25
-15 9 -8 11 -15 5 -15 -6 0 -11 -4 -11 -10 0 -5 7 -7 15 -4 17 7 19 -4 5 -40
-7 -21 -6 -26 5 -26 8 0 12 -6 10 -12 -2 -7 2 -22 10 -32 12 -16 18 -17 27 -8
19 19 24 14 24 -28 0 -27 -4 -40 -13 -40 -8 0 -6 -7 7 -20 21 -21 35 -27 25
-11 -3 5 -1 12 5 16 6 4 10 -7 10 -25 0 -25 4 -31 15 -26 20 7 19 -4 -2 -20
-17 -12 -16 -13 5 -14 12 0 22 -4 22 -10 0 -5 -7 -7 -15 -4 -9 4 -15 0 -15
-10 0 -9 7 -16 15 -16 17 0 35 -30 35 -60 0 -11 7 -23 15 -26 8 -4 13 -10 10
-14 -3 -5 -1 -11 5 -15 5 -3 10 -14 10 -25 0 -10 7 -20 15 -24 8 -3 15 -14 15
-25 0 -11 7 -26 15 -35 8 -8 15 -23 15 -33 0 -15 2 -16 10 -3 8 12 10 11 10
-7 0 -13 4 -23 9 -23 5 0 11 -9 14 -20 3 -11 1 -20 -4 -20 -15 0 -10 -27 7
-34 8 -3 13 -10 10 -15 -9 -14 4 -41 19 -41 7 0 15 -7 19 -15 3 -8 1 -15 -5
-15 -13 0 19 -60 36 -66 8 -3 11 -12 8 -20 -3 -8 0 -21 7 -29 7 -9 14 -23 15
-33 5 -46 19 -82 30 -82 13 0 51 -68 47 -84 -2 -5 3 -13 10 -17 10 -6 10 -9 1
-9 -16 0 -5 -30 19 -52 11 -9 21 -27 22 -40 2 -13 9 -36 16 -53 7 -16 15 -39
17 -49 2 -11 17 -41 33 -68 17 -27 30 -56 30 -66 0 -10 9 -35 20 -57 22 -42
26 -70 10 -60 -5 3 -10 1 -10 -4 0 -6 5 -11 11 -11 6 0 8 -9 4 -20 -4 -12 -2
-20 5 -20 7 0 9 -8 5 -20 -5 -15 -3 -18 9 -14 12 5 15 2 10 -10 -5 -12 0 -19
15 -23 12 -3 24 -17 28 -31 3 -14 12 -37 19 -51 8 -14 14 -34 14 -43 0 -9 5
-20 11 -23 6 -4 8 -14 5 -22 -7 -17 12 -46 23 -38 4 2 14 -18 21 -45 8 -28 18
-50 23 -50 5 0 7 -10 4 -21 -3 -12 -2 -29 3 -38 6 -9 19 -43 30 -76 11 -33 25
-62 30 -63 6 -2 10 -12 10 -22 0 -10 5 -22 10 -25 6 -3 10 -14 10 -23 0 -9 12
-39 26 -67 13 -27 27 -69 31 -93 3 -23 10 -45 14 -48 5 -3 9 -14 9 -24 0 -10
7 -26 16 -34 8 -9 12 -16 8 -16 -4 0 -1 -6 8 -12 8 -7 24 -47 34 -88 10 -41
24 -82 32 -92 7 -9 12 -22 11 -30 -1 -7 3 -26 10 -43 6 -16 14 -36 16 -42 2
-7 16 -13 29 -13 l25 0 -15 53 c-9 28 -23 70 -33 92 -22 51 -39 98 -56 155
-17 61 -42 117 -55 125 -6 4 -8 11 -4 16 5 9 -9 65 -27 104 -5 11 -29 78 -54
148 -24 71 -54 142 -66 158 -11 16 -15 29 -9 29 7 0 8 6 2 17 -5 10 -31 81
-57 158 -32 96 -55 147 -72 161 -14 12 -26 35 -29 60 l-6 39 21 -25 c11 -14
21 -19 21 -12 0 6 -8 20 -18 30 -10 10 -24 41 -32 68 -7 27 -32 101 -56 164
-95 258 -129 351 -174 480 -26 74 -70 194 -97 265 -28 72 -56 148 -63 170 -7
22 -27 78 -45 125 -18 47 -72 193 -120 325 -48 132 -104 285 -125 340 -21 55
-57 152 -80 215 -23 63 -59 160 -80 215 -21 55 -59 156 -85 225 -25 69 -51
136 -57 150 -6 14 -30 80 -53 146 -24 67 -53 139 -64 160 -12 21 -21 47 -21
58 0 18 -48 136 -60 146 -11 10 -43 129 -38 142 8 20 36 31 221 90 93 29 168
58 167 63 -1 6 -48 26 -104 46 -103 37 -497 180 -686 249 -58 21 -165 60 -237
86 -73 27 -133 54 -133 60 0 7 9 34 21 61 11 26 50 125 85 218 36 94 72 186
81 205 8 19 24 62 35 95 11 33 35 93 54 134 19 41 36 81 37 90 2 9 8 25 14 36
16 30 71 169 104 263 16 45 34 90 39 100 12 21 56 128 85 207 13 33 48 125 79
205 51 131 70 178 112 275 17 40 119 301 154 395 15 41 37 98 48 125 11 28 30
75 42 105 11 30 29 73 39 95 10 22 29 69 41 105 12 36 31 82 41 102 11 20 29
63 40 95 12 32 30 77 40 100 11 23 19 44 19 48 0 7 67 178 90 230 18 40 110
274 137 349 8 22 24 60 35 85 22 49 76 192 85 226 3 11 15 40 28 65 13 25 33
73 44 107 12 35 33 89 47 120 38 85 121 306 134 355 7 24 19 51 28 61 9 10 16
36 17 58 0 21 5 39 11 39 6 0 31 53 57 117 81 203 138 346 159 398 11 28 25
68 31 90 7 22 15 42 18 45 8 6 71 166 99 250 18 54 25 72 60 155 9 22 29 72
44 110 16 39 45 113 66 165 74 182 288 726 315 800 15 41 37 98 50 125 40 87
215 527 215 539 0 4 8 26 19 49 10 23 38 92 61 152 23 61 48 124 55 140 7 17
29 73 50 125 20 52 49 127 65 165 15 39 54 135 85 215 31 80 63 160 71 178 8
18 14 37 14 43 0 8 66 175 101 254 18 43 177 452 192 495 8 25 34 90 57 145
36 88 91 226 227 570 19 50 50 126 68 170 18 44 43 109 55 145 12 36 33 89 47
119 14 30 34 81 45 113 10 33 30 83 42 111 13 29 45 108 71 177 26 69 53 139
61 155 26 56 104 259 104 272 0 8 10 33 21 56 12 23 32 73 45 111 13 38 28 74
32 80 17 22 62 147 62 171 0 14 5 25 10 25 12 0 13 3 73 165 25 66 61 158 80
205 19 47 56 141 82 210 26 69 50 132 54 140 15 29 81 198 81 206 0 5 18 53
40 107 22 53 58 141 80 195 22 53 40 102 40 108 0 5 8 28 19 50 10 21 26 61
36 89 9 27 20 54 25 60 9 11 36 79 100 255 24 63 54 137 68 165 13 27 32 72
42 100 23 67 58 123 64 104 26 -80 61 -178 68 -192 10 -20 74 -196 113 -312
13 -38 44 -126 70 -195 25 -69 60 -163 77 -210 16 -47 58 -161 92 -255 35 -93
76 -206 92 -250 15 -44 30 -73 32 -64 3 18 -9 55 -88 274 -28 77 -68 190 -90
250 -21 61 -57 162 -79 225 -23 63 -65 180 -93 260 -28 80 -54 150 -58 155 -4
6 -7 17 -7 25 0 8 -27 89 -60 180 -34 91 -80 221 -103 290 -24 69 -53 148 -64
175 -12 28 -28 70 -35 95 -17 55 -124 365 -191 550 -27 74 -60 169 -74 210
-14 41 -48 140 -77 220 -28 80 -66 190 -85 245 -18 55 -47 138 -64 185 -17 47
-42 117 -55 155 -13 39 -38 108 -55 155 -17 47 -42 117 -55 155 -58 173 -228
654 -254 720 -7 17 -37 100 -66 185 -158 459 -190 537 -227 556 -26 13 -28 13
-28 -5 0 -11 9 -22 20 -26 29 -9 25 -23 -5 -18 -13 3 -27 13 -30 23 -8 24 5
52 21 46 8 -3 14 1 14 9 0 8 -8 15 -17 15 -24 0 -44 -45 -34 -73 6 -16 4 -25
-8 -34 -13 -10 -14 -15 -3 -32 17 -28 15 -51 -4 -51 -8 0 -12 -5 -9 -10 5 -8
11 -8 19 -1 7 6 16 8 19 4 12 -11 8 -23 -8 -23 -9 0 -15 -9 -15 -21 0 -16 5
-20 20 -16 11 3 20 1 20 -4 0 -5 -5 -9 -11 -9 -5 0 -7 -4 -4 -10 9 -15 -6 -12
-26 5 -15 15 -17 14 -23 -11 -5 -17 -3 -30 5 -35 7 -4 13 -15 14 -26 1 -10 7
-29 14 -42 10 -18 10 -22 1 -16 -28 17 26 -103 60 -135 3 -3 14 -25 25 -50 10
-25 24 -49 30 -55 6 -5 19 -26 29 -45 29 -58 42 -79 59 -98 10 -10 17 -22 17
-26 0 -3 18 -30 40 -58 23 -28 39 -56 37 -62 -5 -14 -324 -174 -477 -239 -67
-28 -245 -108 -305 -136 -33 -15 -80 -36 -105 -46 -48 -20 -119 -51 -202 -89
-29 -14 -75 -33 -103 -44 -27 -11 -78 -34 -111 -51 -34 -17 -65 -31 -68 -31
-8 0 -74 -29 -171 -75 -207 -99 -269 -121 -302 -108 -7 3 -24 30 -39 61 -29
63 -142 321 -184 422 -15 36 -52 121 -83 190 -30 69 -66 152 -80 185 -14 33
-57 132 -97 220 -39 88 -78 176 -87 195 -200 465 -414 957 -514 1185 -44 99
-87 198 -96 220 -9 22 -25 51 -34 65 -9 14 -28 57 -42 95 -14 39 -53 133 -87
210 -34 77 -86 196 -115 265 -29 69 -79 184 -110 255 -177 404 -403 923 -539
1240 -43 99 -81 185 -86 190 -4 6 -17 35 -28 65 -32 84 -139 326 -156 353 -9
12 -29 59 -45 102 -30 82 -50 132 -94 226 -27 57 -103 235 -323 749 -75 173
-149 343 -165 378 -16 35 -29 65 -29 67 0 2 -11 28 -24 57 -50 112 -65 146
-104 238 -22 52 -59 138 -82 190 -23 52 -98 223 -165 380 -68 157 -130 299
-138 315 -8 17 -34 77 -58 135 -23 58 -62 144 -86 192 -24 48 -43 93 -43 100
0 6 -13 41 -29 77 -17 36 -72 165 -124 286 -142 331 -143 333 -167 276z"/>
<path d="M16650 17713 c0 -13 36 -123 90 -273 23 -63 57 -160 77 -215 19 -55
41 -113 48 -130 7 -16 29 -77 49 -135 21 -58 41 -114 45 -125 4 -11 16 -45 25
-75 30 -97 126 -367 151 -425 7 -16 17 -46 23 -65 5 -19 22 -66 37 -105 78
-199 282 -812 356 -1070 38 -133 71 -245 80 -270 21 -60 41 -131 51 -180 9
-46 25 -99 92 -325 14 -47 30 -105 37 -130 36 -142 109 -323 109 -270 0 7 7
10 15 6 18 -7 81 29 89 51 4 8 0 21 -8 27 -17 12 -48 89 -130 321 -32 88 -66
180 -76 205 -11 25 -46 124 -80 220 -34 96 -80 225 -102 285 -23 61 -51 139
-63 175 -13 36 -41 115 -63 175 -22 61 -68 187 -103 280 -34 94 -81 226 -105
295 -45 132 -151 431 -184 515 -10 28 -58 158 -105 290 -47 132 -105 290 -127
350 -22 61 -53 146 -69 190 -15 44 -38 105 -49 135 -12 30 -26 71 -30 90 -21
83 -80 219 -80 183z"/>
<path d="M23973 16429 c-13 -15 -23 -32 -23 -39 0 -6 -7 -19 -16 -27 -8 -9
-14 -24 -11 -33 3 -11 -1 -17 -12 -16 -9 1 -16 -7 -16 -18 0 -11 -6 -21 -13
-24 -6 -2 -12 -12 -12 -23 0 -10 -4 -19 -10 -19 -5 0 -10 -11 -10 -25 0 -15
-6 -25 -15 -25 -9 0 -19 -16 -26 -42 -9 -37 -17 -46 -57 -65 -26 -13 -72 -31
-102 -41 -30 -11 -73 -29 -95 -41 -22 -11 -44 -21 -50 -21 -5 0 -75 -25 -155
-56 -149 -58 -306 -117 -420 -161 -36 -13 -81 -29 -100 -35 -50 -15 -90 -37
-90 -49 0 -12 111 -3 120 10 3 4 19 8 35 9 28 2 65 13 110 33 11 5 29 10 40
12 11 2 30 8 42 15 12 7 33 12 47 12 15 0 35 5 45 12 11 6 26 8 37 3 11 -4 29
-7 41 -6 14 2 27 -8 39 -28 10 -17 22 -31 26 -31 4 0 8 -7 8 -16 0 -10 -6 -14
-14 -11 -10 4 -12 -6 -9 -49 5 -54 2 -59 -33 -55 -12 1 -29 -37 -33 -75 0 -6
-13 -17 -27 -24 -22 -12 -25 -19 -19 -47 3 -20 2 -33 -4 -33 -6 0 -16 -20 -22
-45 -9 -34 -16 -45 -31 -45 -13 0 -18 -5 -15 -14 3 -8 -5 -18 -19 -25 -16 -7
-24 -19 -24 -35 0 -14 -4 -27 -10 -31 -5 -3 -6 -13 -3 -22 5 -13 2 -15 -15
-11 -19 5 -23 1 -28 -33 -7 -41 -24 -64 -24 -32 0 32 -33 -12 -34 -46 -1 -20
-7 -33 -18 -37 -9 -3 -18 -15 -20 -27 -2 -12 -12 -26 -23 -32 -14 -7 -19 -18
-17 -37 3 -23 -1 -28 -19 -28 -18 0 -20 -3 -11 -12 18 -18 15 -28 -8 -28 -13
0 -20 -7 -20 -20 0 -12 -11 -31 -25 -44 -14 -13 -25 -28 -25 -33 0 -6 -6 -16
-14 -22 -7 -6 -16 -25 -19 -41 -5 -21 -14 -31 -32 -36 -14 -3 -25 -12 -25 -19
0 -7 -6 -16 -12 -19 -10 -5 -10 -7 0 -12 6 -3 12 -10 12 -15 0 -5 -6 -9 -12
-9 -7 -1 -24 -24 -38 -53 -13 -29 -44 -71 -67 -95 -28 -27 -43 -51 -43 -67 0
-14 -7 -28 -15 -31 -8 -4 -15 -13 -15 -20 0 -8 -7 -17 -15 -20 -8 -4 -15 -15
-15 -25 0 -11 -10 -23 -23 -28 -15 -6 -28 -26 -41 -60 -10 -28 -24 -51 -30
-51 -14 0 -32 -31 -40 -70 -3 -17 -18 -32 -41 -43 -22 -11 -35 -24 -35 -36 0
-11 -5 -21 -11 -23 -6 -2 -17 -26 -24 -53 -10 -40 -16 -49 -31 -47 -16 3 -16
2 -4 -13 13 -15 11 -20 -13 -39 -17 -14 -27 -31 -27 -49 0 -17 -5 -27 -14 -27
-17 0 -55 -35 -73 -66 -9 -16 -9 -24 0 -33 8 -8 6 -11 -7 -11 -12 0 -16 -5
-12 -15 3 -8 1 -15 -3 -15 -5 0 -7 -9 -4 -19 4 -16 -2 -21 -30 -26 -29 -6 -37
-13 -42 -35 -3 -15 -14 -30 -24 -33 -10 -2 -27 -23 -37 -46 -10 -22 -21 -41
-26 -41 -4 0 -8 -11 -8 -25 0 -18 -9 -31 -30 -43 -22 -12 -30 -24 -30 -44 0
-17 -5 -28 -14 -28 -8 0 -17 -11 -20 -24 -4 -15 -13 -23 -23 -22 -13 1 -19 -7
-21 -26 -2 -16 -8 -28 -13 -28 -5 0 -9 -9 -9 -19 0 -22 -38 -91 -50 -91 -4 0
-12 -17 -17 -37 -8 -33 -13 -38 -38 -38 -26 0 -29 -3 -33 -40 -5 -54 -23 -89
-47 -93 -22 -4 -63 -42 -45 -42 5 0 10 -5 10 -11 0 -5 -4 -8 -8 -5 -5 3 -15
-6 -22 -19 -7 -14 -17 -25 -22 -25 -5 0 -6 -4 -3 -10 3 -5 2 -10 -4 -10 -23 0
-41 -32 -36 -64 5 -25 2 -35 -20 -54 -14 -12 -30 -34 -35 -48 -6 -15 -14 -22
-22 -18 -6 4 -8 3 -4 -4 3 -6 -2 -15 -11 -21 -10 -6 -14 -11 -10 -11 4 0 3 -9
-3 -20 -12 -22 -46 -27 -52 -8 -3 9 -6 9 -12 0 -4 -7 3 -16 18 -24 29 -13 34
-28 10 -28 -10 0 -14 -6 -11 -14 4 -9 -2 -17 -14 -21 -11 -4 -19 -15 -19 -28
0 -25 -28 -53 -57 -59 -12 -2 -18 -11 -17 -31 1 -15 -3 -27 -8 -27 -5 0 -19
-9 -31 -21 -21 -19 -21 -21 -4 -30 24 -14 10 -32 -18 -25 -18 5 -22 2 -19 -12
3 -9 -4 -27 -15 -39 -12 -12 -21 -32 -21 -43 0 -12 -4 -18 -10 -15 -5 3 -10
-1 -10 -9 0 -8 -11 -27 -25 -42 -14 -15 -25 -33 -25 -40 0 -7 -5 -14 -11 -16
-7 -2 -17 -19 -23 -38 -8 -24 -18 -36 -33 -38 -13 -2 -23 -8 -23 -13 0 -6 5
-7 10 -4 6 3 10 1 10 -4 0 -6 -7 -11 -15 -11 -8 0 -15 -9 -15 -19 0 -11 -5
-23 -11 -26 -6 -4 -8 -13 -5 -21 4 -10 0 -14 -11 -12 -9 2 -17 -5 -19 -15 -3
-20 -53 -76 -67 -77 -5 0 -16 -7 -24 -16 -13 -13 -14 -17 -3 -24 9 -6 7 -10
-8 -14 -18 -6 -20 -11 -12 -32 13 -33 13 -34 -5 -34 -8 0 -15 8 -16 18 0 12
-3 10 -10 -7 -5 -14 -8 -30 -5 -37 3 -8 0 -11 -8 -8 -17 7 -27 -21 -20 -54 l6
-27 -22 25 -22 25 7 -29 c5 -24 3 -28 -12 -24 -12 3 -19 -1 -20 -11 -4 -48
-12 -76 -22 -73 -6 1 -14 -5 -17 -13 -3 -8 -10 -12 -15 -9 -5 3 -9 -4 -9 -15
0 -12 -4 -21 -8 -21 -11 0 -36 -51 -33 -67 1 -7 -6 -13 -16 -13 -13 0 -18 -8
-19 -32 -1 -18 -6 -34 -13 -36 -6 -2 -11 -15 -11 -29 0 -21 -2 -23 -15 -13
-17 14 -36 5 -28 -15 3 -9 -1 -15 -11 -15 -19 0 -21 -11 -5 -27 13 -13 -19
-56 -34 -46 -5 3 -3 9 4 14 21 13 6 17 -18 4 -19 -10 -20 -14 -9 -36 10 -21
10 -26 -7 -41 -11 -10 -24 -18 -30 -18 -14 0 -48 -41 -42 -50 9 -15 -14 -60
-31 -60 -10 0 -14 -5 -11 -15 4 -8 2 -17 -3 -20 -6 -4 -10 -15 -10 -26 0 -12
-7 -19 -20 -19 -16 0 -20 -7 -20 -30 0 -20 -5 -30 -15 -30 -8 0 -15 -4 -15
-10 0 -5 -11 -12 -25 -16 -14 -4 -24 -9 -21 -12 3 -2 1 -13 -4 -23 -7 -12 -7
-20 0 -24 18 -11 10 -26 -12 -23 -20 3 -23 -2 -25 -31 -1 -19 -6 -37 -13 -41
-6 -3 -8 -14 -5 -22 5 -12 -2 -18 -24 -23 -22 -5 -31 -12 -31 -26 0 -10 -5
-19 -11 -19 -5 0 -8 -3 -6 -7 9 -16 -38 -88 -59 -91 -17 -2 -23 -12 -27 -44
-5 -37 -37 -89 -37 -60 0 15 -26 16 -36 1 -3 -6 -2 -14 3 -18 13 -9 15 -61 3
-61 -6 0 -13 7 -16 15 -9 22 -24 18 -24 -5 0 -11 -4 -20 -9 -20 -5 0 -13 -9
-16 -20 -3 -11 -12 -20 -20 -20 -9 0 -12 -11 -10 -35 3 -26 0 -35 -11 -35 -9
0 -13 -4 -10 -9 3 -5 -1 -14 -9 -21 -8 -7 -15 -18 -15 -26 0 -7 -10 -14 -22
-16 -13 -2 -22 -9 -20 -16 1 -8 -2 -11 -8 -7 -18 11 -32 -5 -19 -21 10 -12 8
-19 -9 -35 -12 -11 -22 -28 -22 -39 0 -10 -4 -21 -9 -25 -5 -3 -12 -19 -16
-35 -7 -33 -14 -37 -33 -18 -9 9 -12 8 -13 -8 -1 -10 -1 -22 0 -26 0 -3 -13
-11 -29 -17 -26 -9 -29 -13 -24 -40 8 -37 -16 -78 -53 -92 -21 -8 -23 -12 -13
-24 11 -13 7 -15 -21 -15 -31 -1 -32 -2 -16 -14 16 -12 15 -15 -15 -29 -26
-13 -29 -17 -12 -17 16 0 21 -6 20 -22 -1 -17 -7 -22 -24 -21 -16 2 -22 -2
-22 -18 0 -15 -5 -19 -15 -15 -10 3 -15 -1 -16 -12 0 -14 -2 -14 -8 2 -11 28
-25 2 -17 -30 5 -17 2 -24 -8 -24 -21 0 -28 -28 -8 -33 14 -4 14 -5 1 -6 -9 0
-22 -12 -29 -26 -7 -13 -22 -27 -33 -31 -15 -5 -17 -8 -6 -14 11 -7 10 -12 -4
-28 -9 -10 -17 -23 -17 -28 0 -6 -13 -20 -30 -32 -16 -12 -27 -28 -25 -35 6
-17 -21 -51 -34 -42 -6 3 -11 -1 -11 -9 0 -9 -5 -16 -10 -16 -12 0 -31 -42
-37 -79 -5 -30 -23 -64 -30 -57 -11 11 -42 -31 -48 -67 -5 -27 -12 -37 -21
-33 -8 3 -14 1 -14 -3 0 -5 5 -11 12 -13 6 -2 -5 -12 -26 -22 -30 -14 -35 -20
-25 -32 9 -11 7 -15 -7 -20 -37 -14 -85 -69 -53 -62 6 2 14 -3 17 -11 3 -10
-1 -12 -17 -8 -17 4 -24 0 -31 -18 -5 -13 -18 -32 -30 -43 -14 -13 -18 -22
-11 -27 16 -9 3 -25 -15 -18 -12 4 -14 0 -8 -21 5 -22 3 -26 -16 -26 -15 0
-20 -5 -17 -14 3 -7 0 -19 -6 -25 -8 -8 -8 -11 2 -11 11 0 11 -3 1 -15 -7 -9
-21 -13 -31 -10 -16 5 -19 1 -19 -24 0 -16 -5 -33 -12 -37 -7 -4 -8 -3 -4 4 4
7 2 12 -3 12 -6 0 -11 -7 -11 -15 0 -9 -6 -18 -14 -21 -8 -3 -19 -18 -26 -34
-7 -16 -18 -31 -25 -34 -7 -2 -16 -18 -20 -35 -3 -16 -13 -35 -21 -41 -7 -7
-11 -16 -8 -21 3 -5 -2 -9 -10 -9 -9 0 -16 -4 -16 -10 0 -5 -7 -10 -15 -10 -8
0 -15 -4 -15 -10 0 -5 5 -10 11 -10 8 0 7 -6 -2 -16 -7 -9 -12 -30 -10 -46 2
-25 0 -29 -16 -24 -16 5 -19 1 -17 -26 3 -41 -15 -120 -26 -113 -5 3 -11 1
-15 -5 -3 -5 1 -10 9 -10 9 0 16 -4 16 -10 0 -5 -4 -10 -10 -10 -5 0 -10 -11
-10 -24 0 -14 -5 -28 -11 -32 -6 -4 -9 -26 -7 -55 3 -34 1 -50 -9 -53 -13 -5
-68 -114 -65 -128 1 -5 -1 -8 -5 -8 -8 0 -14 -41 -17 -110 -1 -33 1 -35 32
-38 25 -3 38 -11 53 -35 22 -37 24 -51 7 -42 -7 4 0 -5 16 -20 29 -26 28 -40
-2 -40 -9 0 -17 -4 -17 -10 0 -5 -4 -16 -9 -23 -6 -10 -3 -13 10 -10 11 2 18
10 16 16 -1 7 2 12 8 12 14 0 13 -33 -2 -48 -9 -9 -7 -12 10 -12 19 0 21 -3
13 -19 -6 -10 -8 -21 -5 -24 3 -3 -4 -19 -17 -36 -18 -24 -26 -28 -41 -20 -19
10 -38 5 -38 -11 0 -16 84 -2 185 30 55 17 150 46 210 65 61 19 191 62 290 95
99 34 190 65 203 67 13 3 22 9 20 14 -2 5 -151 97 -333 206 -257 154 -331 203
-333 220 -2 16 129 221 434 680 581 874 914 1378 1232 1863 52 80 141 215 197
300 56 85 137 209 180 275 43 66 94 144 114 173 20 30 47 73 61 96 14 23 38
60 53 82 16 21 67 98 113 169 82 126 155 237 396 605 63 96 160 245 216 330
55 85 161 247 235 360 74 113 170 259 212 325 86 132 167 256 350 535 67 102
161 247 211 322 49 76 148 227 219 337 72 109 150 229 174 267 25 38 82 125
127 194 89 137 288 442 437 670 52 80 125 192 162 250 38 58 128 196 201 307
73 111 142 219 154 240 11 21 38 66 60 100 40 61 41 62 38 145 l-3 84 -22 -27z"/>
</g>
</svg>
